<svg xmlns="http://www.w3.org/2000/svg" xmlns:xlink="http://www.w3.org/1999/xlink" version="1.1" width="1000" height="1000" viewBox="0 0 1000 1000" xml:space="preserve">
<desc>Created with Fabric.js 3.5.0</desc>
<defs>
</defs>
<rect x="0" y="0" width="100%" height="100%" fill="rgba(255,255,255,0)"/>
<g transform="matrix(-1.0025 0 0 1 500.7256 499.9997)" id="586754">
<g style="" vector-effect="non-scaling-stroke">
		<g transform="matrix(1.899 0 0 1.899 -0.0023 -1.795)" id="g436">
<path style="stroke: none; stroke-width: 1; stroke-dasharray: none; stroke-linecap: butt; stroke-dashoffset: 0; stroke-linejoin: miter; stroke-miterlimit: 4; is-custom-font: none; font-file-url: none; fill: rgb(57,65,67); fill-rule: nonzero; opacity: 1;" transform=" translate(-180.7435, -287.46)" d="m 231.53 50.74 c 3.73 0.09 7.42 0.28 11.15 -0.08 c 9.74 0.61 19.57 0.25 29.33 0.27 c 4.12 -0.02 8.13 1.03 12.23 1.04 c -0.23 1.25 0.45 1.94 2.04 2.07 c 1.7 3.43 3.62 6.74 5.82 9.87 c 4.2 5.92 7.84 12.29 11.41 18.6 c 1.68 3.01 4.54 4.75 6.32 7.68 c 2.36 3.82 3.72 8.15 5.97 12.05 c 2.63 4.62 5.23 9 6.71 14.18 c 2.56 15.84 8.47 30.57 10.5 46.61 c 0.68 3.36 -4.76 4.99 -6.48 7.43 c -2.99 4.05 -5.94 7.97 -9.57 11.49 c -6.21 6.14 -10.86 13.4 -16.51 20 c -0.45 -0.6 -0.9 -1.2 -1.34 -1.8 c -1.61 1.83 -3.23 3.57 -5.33 4.86 c 1.27 -3.66 3.78 -6.13 6.2 -9.02 c 9.21 -11.15 19.95 -21.98 27.79 -34.18 c -6.36 0.2 -12.37 2.11 -18.71 2.65 c -6.2 0.5 -11.14 4.02 -17.25 4.9 c -4.83 0.72 -9.22 2.72 -14 3.71 c -7.35 1.55 -14.08 4.52 -21.11 7 c -6.85 0.03 -14.01 3.42 -19.95 6.58 c -4.7 2.09 -9.19 3.38 -12.96 7.18 c -1.94 1.72 -1.6 4.76 -1.51 7.09 c -0.57 -1 -1.14 -2.01 -1.73 -3 c -3.37 1.46 -6.61 3.19 -9.97 4.66 c -2.93 1.27 -5.59 2.89 -7.73 5.3 c 1.18 -3.01 1.95 -7.34 5.13 -8.86 c 3.68 -1.94 7.17 -3.67 9.95 -6.88 c -5.24 2.25 -12.55 4.09 -15.55 9.27 c -2.02 3.02 -3.95 6.15 -5.56 9.41 c -2.25 4.36 -1.05 9.64 -2.44 14.51 c -1.29 4.32 -3.46 8.24 -4.31 12.74 c 2.41 -1.5 2.66 -3.28 3.33 -5.86 c 2.08 3.13 3.63 7.24 6.8 9.24 c 1.9 3.42 3.58 7.47 3.67 11.41 c -1.15 2.95 -3.86 5.46 -6.21 7.5 c -0.17 -0.98 -0.32 -1.96 -0.47 -2.94 l 0.1 -0.69 c -4.39 1.46 -6.53 4.04 -9.23 7.59 c -2.27 -3.66 -3.74 -7.7 -5.87 -11.42 c -1.91 2.19 -4.47 5.07 -4.6 8.09 c 0.02 4.95 2.22 8.97 1.14 13.99 c -1.6 -6.15 -0.24 -11.21 -3.57 -16.42 c 0.19 -1.23 0.36 -2.46 0.53 -3.69 c 0.09 1.09 0.19 2.18 0.31 3.27 c 2.33 -2.01 3.84 -4.25 5.17 -7 c 1.99 -4.11 5.02 -7.26 7.55 -11.01 c -2.81 -2.78 -6.06 -4.92 -8.58 -8 c 0.13 -0.6 0.25 -1.2 0.37 -1.8 c 2.35 -0.99 3.52 -3.63 4.81 -5.72 c 0.95 -3.19 -0.18 -7.1 -3.08 -8.89 c -0.83 0.78 -1.64 1.58 -2.44 2.38 c -0.45 -2.51 -0.99 -4.99 -1.76 -7.42 c -1.34 1.6 -2.61 3.25 -3.84 4.94 c -1.01 -2 -2.08 -3.96 -3.24 -5.87 c 0.32 6.37 1.61 12.66 2.39 18.99 c 0.24 2.28 1.16 3.99 2.49 5.8 c -0.59 6.76 -2.2 13.4 -3.24 20.1 c -1.29 5.93 -1.86 11.95 -2.99 17.91 c -0.9 2.45 -1.44 4.78 -1.63 7.4 c -0.4 5.38 -1.49 10.61 -1.62 16 c -0.41 8.29 -0.17 16.49 -1.5 24.7 c -0.42 1.96 0.61 2.97 1.63 4.47 c 0.17 2.32 0.21 4.64 0.13 6.96 c -0.03 0.94 -0.06 1.88 -0.1 2.82 c 0.5 -0.31 1.01 -0.61 1.52 -0.91 c 0.74 -3.11 1.31 -6.09 3.21 -8.74 c 1.61 -1.83 -0.63 -4.52 0.12 -6.82 c 0.96 -3.78 2.02 -7.5 2.77 -11.32 c 0.68 -0.31 1.37 -0.62 2.05 -0.93 c -0.5 7.82 -1.23 15.68 -2.5 23.41 c -0.75 4.87 -0.85 9.77 -0.59 14.68 c 0.56 -1.34 1.12 -2.69 1.69 -4.04 l 0.51 1.2 c -0.81 5.9 -1.27 11.77 -1.71 17.71 c -0.3 -2.9 -0.36 -5.81 -0.62 -8.7 l -0.66 -0.4 c -0.8 5.78 -1.17 11.58 -1.33 17.42 c -1.13 1.15 -2.03 1.82 -2.06 3.56 c -0.8 7.32 -1.26 14.65 -1.15 22.01 c 0.21 5.74 -2.21 10.14 0.11 15.62 c -0.16 3.39 -0.05 6.61 1.1 9.85 c -0.46 2.19 -2.49 6.59 -1.01 8.34 c 6.96 2.43 13.95 3.86 21.16 5.22 c 3.92 0.72 7.46 2.23 10.93 4.14 c -6.59 3.64 -14.03 5.84 -21.07 8.49 c 5.47 -3.94 11.62 -4.95 17.56 -7.83 c -0.9 -1.09 -1.41 -2.23 -2.88 -2.63 c -3.72 -1.21 -7.72 -1.68 -11.53 -2.54 c -4.53 -0.9 -8.79 -2.48 -13.2 -3.81 c -0.78 0.64 -1.55 1.27 -2.32 1.91 c 0.31 -4.61 0.29 -9.22 0.08 -13.84 c -0.36 5.09 -1.59 10.04 -2.12 15.1 c -0.42 7.29 -0.8 14.6 -1.41 21.89 c -1.38 8.97 -3.01 17.91 -4.34 26.89 c -0.89 5.7 0.23 11.3 -1.05 16.99 c -0.69 5.18 -3.02 9.79 -3.95 14.89 c -3.39 3.69 -4.61 8.16 -6.74 12.55 c -3.18 -1.47 -6.37 -2.94 -9.59 -4.36 c -7.26 -3.62 -14.99 -6.31 -22.59 -9.13 l -0.34 -0.05 c -0.75 -0.07 -1.5 -0.14 -2.26 -0.19 c -2.6 -2.92 -5.82 -5.13 -8.54 -7.9 l -0.35 -0.45 c -2.21 -3.54 -4.55 -6.97 -7.29 -10.12 l 1 -0.72 c -2.39 -5.22 -5.92 -9.54 -7.28 -15.28 l 0.19 -1.82 c 5.05 5.92 6.47 12.97 13.04 17.78 c 0.16 -0.92 0.32 -1.83 0.47 -2.75 c -7.81 -8.28 -12.39 -19.15 -19.3 -28.43 c -5.2 -7.01 -6.83 -14.69 -10.05 -22.59 c 3.77 2.3 7.87 3.86 11.73 5.96 c 2.32 1.24 2.93 3.79 3.63 6.11 c 1.89 7.02 2.64 13.67 6.94 19.8 c 2.65 4.14 4.86 8.48 7.25 12.76 c -0.11 -5.7 -0.45 -11.15 0.28 -16.84 c 0.81 1.31 1.6 2.62 2.39 3.93 c -0.2 -11.1 3.08 -21.7 2.39 -32.75 c -0.62 2.88 -1.17 5.67 -2.8 8.2 c -1.26 -8.5 1.03 -17.88 1.9 -26.4 c -4.33 5.54 -8.14 11.76 -10.61 18.36 c -1.4 3.51 -1.11 7.03 -0.16 10.61 c -0.92 0.09 -1.84 0.18 -2.76 0.27 c -2.22 -2.52 -4.09 -5 -7.28 -6.38 c -5.01 -2.36 -10.27 -4.64 -13.52 -9.41 c -2.06 -3.85 -1.44 -9.74 -4.06 -13.48 c -0.58 -0.23 -1.19 -0.4 -1.82 -0.53 c -8.42 -5.16 -18.92 -12.01 -22.63 -21.57 c -2.64 -5.86 -6.17 -10.73 -8.23 -16.72 c -2.22 -6.54 -4.51 -13.05 -6.38 -19.71 c -0.82 -2.97 -2.09 -6.24 -2.04 -9.35 c 0.58 -7.61 1.53 -15.09 4.47 -22.2 c 4.04 -12.75 10.78 -24.25 15.2 -36.88 c 4.48 -9.32 8.26 -19.19 13.62 -28.04 c 0.84 -0.31 1.68 -0.61 2.51 -0.92 c 0.24 -1.12 0.47 -2.25 0.7 -3.38 c 0.77 0.95 1.56 1.89 2.36 2.81 c 1.31 -2.3 2.35 -4.68 3.25 -7.17 c 3.02 -8.01 7.75 -14.08 9.25 -22.63 c 2.23 -4.66 4.59 -9.28 7.11 -13.8 c 3.61 -6.37 5.84 -13.72 8.48 -20.6 c 1.32 -3.39 3.57 -6.26 6.37 -8.54 c 8.93 -7.52 20.97 -12.07 31.78 -16.27 c 8.08 -2.51 17.05 -4.16 25.09 -7.89 c 4.02 -5.22 7.28 -11.23 9.61 -17.4 c 2.21 -5.61 5.38 -10.69 7.86 -16.16 c 1.76 -3.76 3.96 -6.83 5.09 -10.86 c 1.93 -6.22 1.55 -12.55 3.32 -18.74 c 1.76 -5.47 5.79 -10.16 9.45 -14.47 c 4.91 -6.33 9.49 -13.19 14.99 -19.03 c 6.05 -5.65 12.51 -10.89 18.76 -16.31 c 1.24 -0.93 2.15 -2.06 3.84 -1.89 z m -64.48 122.79 c -0.66 -0.07 -1.31 -0.15 -1.96 -0.22 c -1.11 -1.41 -2.21 -2.82 -3.38 -4.19 c -1.57 1.71 -2.71 3.67 -3.73 5.74 c 2.02 0.08 4.04 0.13 6.06 0.17 c 0.73 0.71 1.46 1.43 2.19 2.14 c -0.54 5 -2.02 9.68 -2.17 14.7 c 3.03 -7.53 1.81 -17.21 5.94 -24.27 c 1.13 5.97 -0.44 11.5 -0.27 17.45 c 0.11 3.58 -0.6 6.65 0.71 10.02 c 0.97 2.7 0.08 5.93 0.81 8.6 c 1.32 2.46 4.01 4.29 6.21 5.91 c 1.16 -3.64 -0.34 -7.26 -1.23 -10.81 c -1.7 -5.44 -3.64 -10.66 -4.01 -16.43 c -0.39 -5.41 -2.1 -11.42 -0.83 -16.66 c 0.94 -4.37 2.1 -8.62 2.25 -13.12 c -0.47 2.15 -0.81 4.35 -1.4 6.47 c -0.71 2.36 -2.38 4.38 -3.11 6.78 c -0.77 2.55 -1.34 5.16 -2.08 7.72 z m 157.84 -14.49 c 1.67 -0.02 3.33 -0.07 5 -0.13 c 0 -0.95 -0.01 -1.9 -0.02 -2.84 c -2.65 0.4 -3.4 0.77 -4.98 2.97 z M 114.27 263.81 c -0.23 3 -0.04 5.98 0.07 8.98 c 0.17 3.9 -1.46 7.21 -0.56 11.14 c 0.68 3.19 0.66 6.88 2.92 9.31 c 0.27 -5.72 -0.38 -11.53 -0.75 -17.24 c -0.43 -4.25 -0.28 -8.13 -1.68 -12.19 z m -11.45 65.87 c -0.74 -0.91 -1.48 -1.81 -2.22 -2.72 c -5.83 2.62 -11.77 2.71 -17.95 3.9 c -3.81 0.7 -7.55 0.22 -11.15 -1.14 c -6 -2.09 -9.17 -7.72 -15.41 -9.58 c 4.76 3.91 9.84 8.72 15.71 10.81 c 9.48 2.68 18.65 -1.93 28.19 -1.96 c 0.42 2.46 1.12 5.21 0.77 7.71 c -2.47 2.49 -4.98 3.9 -5.47 7.74 c 1 2.3 2.77 4.26 3.58 6.7 c 1.28 3.84 1.79 8.01 1.98 12.03 c -4.98 -1.32 -8.61 -5.56 -13.52 -7.32 c -3.59 -1.82 -9.99 -2.97 -11.78 -6.87 c 0.48 -1.61 1.28 -3.2 2.01 -4.73 c -4.68 -1.87 -9.48 -1.1 -13.96 0.95 c 1.97 1.97 4.42 2.25 6.95 3.35 c 4.14 1.57 7.17 4.67 11.31 6.3 c 3.36 1.33 6.66 2.45 9.51 4.77 c 3.18 2.51 6.33 4.3 10.3 5.24 c 1.64 -2.54 3.2 -5.12 4.71 -7.74 c 1.53 3.42 3.39 7.18 3.79 10.94 c -0.5 1.68 -1.39 3.24 -1.89 4.93 c 0.18 4.57 2.6 7.95 5.77 11.02 c 3.09 -8.98 3.15 -18.13 1.23 -27.36 c -0.47 -0.31 -0.95 -0.62 -1.42 -0.93 c -0.04 1.79 -0.09 3.58 -0.15 5.37 c -3.82 -0.98 -5.01 -2.59 -6.59 -6.03 c 0.87 -0.39 1.73 -0.77 2.59 -1.16 c -0.03 -0.47 -0.06 -0.94 -0.1 -1.41 c -3.93 -3.35 -8.06 -6.13 -10.83 -10.61 c 0.81 -2.5 5.63 -2.61 7.84 -3.76 c 1.29 -3.44 2.85 -6 5.4 -8.66 c -1.99 1.2 -3.97 2.12 -6.25 2.65 c -1.2 -5.85 4.43 -8.26 6.99 -12.5 c 0.25 -2.79 -0.24 -5.48 0.45 -8.28 c 0.84 -3.45 1.56 -6.89 1.9 -10.44 c -0.76 0.15 -1.53 0.3 -2.29 0.45 c -1.51 -4.34 -2.26 -8.86 -3.59 -13.24 c 0.83 8.25 3.04 16.62 3.26 24.9 c -0.05 2.1 0.2 4.54 -1.12 6.3 c -2.61 3.64 -5.72 6.92 -8.55 10.38 z m -45.97 5.93 c 7.14 -1.46 13.2 -1.17 20.33 0.25 c 6.28 0.72 12.62 2.52 18.94 2.4 c -0.46 -0.97 -0.92 -1.94 -1.38 -2.9 c -10.03 1.23 -20.52 -1.73 -30.68 -2.66 c -2.48 -0.03 -5.04 1.82 -7.21 2.91 z m 1.3 6.64 c -5.52 3.05 -11.53 3.04 -14.42 9.32 c 3.29 -2.27 5.95 -4.78 9.67 -6.35 c 8.02 -3.37 16.14 -3.67 24.51 -5.73 c -7.15 -2.74 -13.38 -0.64 -21.38 -1.11 c 0.49 1.31 1.07 2.59 1.62 3.87 z m 89.45 52.17 c 1.06 0.93 2.17 1.86 3.09 2.91 c 0.78 2.42 0.65 5.2 0.78 7.72 c 0.05 6.36 1.04 12.6 0.71 18.98 c -0.05 5.08 -0.68 10.58 0.41 15.56 c 0.14 -9.26 -0.07 -18.49 0.81 -27.75 c 0.95 -9.05 1.98 -18.09 3.04 -27.12 c 0.43 -6.7 1.58 -13.24 1.17 -19.81 c -1.14 8.26 0.22 17.48 -5.51 24.24 c -0.59 -6.77 -0.26 -13.35 -0.29 -20.15 c 0.03 -5.35 -0.19 -10.68 -0.03 -16.03 c 0.01 -2.08 0.26 -3.97 -0.45 -5.96 c -0.18 9.98 -0.09 20 -0.12 29.99 c -0.07 4.26 0.4 8.68 -0.24 12.89 c -0.68 1.71 -2.19 3.13 -3.37 4.53 z m -35.09 7.84 c 4.43 -7.4 8.82 -15.29 9.44 -24.08 c -0.6 -1.6 -2.53 -2.62 -3.92 -3.43 c -2.55 4.9 -2.68 9.92 -3.29 15.26 c -0.44 4.52 -3.16 7.58 -2.23 12.25 z m 32.34 67.9 c 3.55 -4.11 5.39 -8.98 6.19 -14.31 c -2.73 4.47 -4.88 9.24 -6.19 14.31 z m -14.82 30.62 c -1.77 -1.37 -3.47 -3.03 -5.46 -4.08 c -3.89 -0.72 -7.68 -0.12 -11.56 -1.55 c -3.15 -1.14 -6.19 -2.55 -9.37 -3.62 c 3.18 1.9 6.42 3.63 10.06 4.48 c 3.31 0.77 6.81 0.45 10.09 1.05 c 2.81 1.9 4.95 5.58 8.38 6.26 c 1.29 0.35 2.34 -0.11 3.57 -0.42 c -0.79 -2.42 -3.04 -5.47 -1.98 -7.99 c 0.63 -2.29 1.45 -4.52 2.13 -6.79 c -2.19 4.14 -3.45 8.62 -5.86 12.66 z m 19.15 9.75 c 0.83 -2.26 1.25 -4.44 1.44 -6.83 c -1.09 1.24 -2.15 2.51 -3.21 3.77 c -3.48 -1.69 -6.8 -3.51 -10.58 -4.49 c 3.75 3.1 7.93 5.55 12.35 7.55 z" stroke-linecap="round"/>
</g>
		<g transform="matrix(1.899 0 0 1.899 157.8391 -450.918)" id="g436">
<path style="stroke: none; stroke-width: 1; stroke-dasharray: none; stroke-linecap: butt; stroke-dashoffset: 0; stroke-linejoin: miter; stroke-miterlimit: 4; is-custom-font: none; font-file-url: none; fill: rgb(40,42,46); fill-rule: nonzero; opacity: 1;" transform=" translate(-263.86, -50.955)" d="m 260 50.03 c 7.28 -0.03 14.56 0.05 21.83 -0.09 c 0.43 1.01 1.15 1.32 2.18 0.93 l 1.03 0.97 l -0.8 0.13 c -4.1 -0.01 -8.11 -1.06 -12.23 -1.04 c -9.76 -0.02 -19.59 0.34 -29.33 -0.27 c 5.82 -1.03 11.46 -0.57 17.32 -0.63 z" stroke-linecap="round"/>
</g>
		<g transform="matrix(1.899 0 0 1.899 194.0347 -451.9344)" id="g436">
<path style="stroke: none; stroke-width: 1; stroke-dasharray: none; stroke-linecap: butt; stroke-dashoffset: 0; stroke-linejoin: miter; stroke-miterlimit: 4; is-custom-font: none; font-file-url: none; fill: rgb(40,42,46); fill-rule: nonzero; opacity: 1;" transform=" translate(-282.92, -50.4198)" d="m 281.83 49.94 c 1.01 -0.34 1.73 -0.03 2.18 0.93 c -1.03 0.39 -1.75 0.08 -2.18 -0.93 z" stroke-linecap="round"/>
</g>
		<g transform="matrix(1.899 0 0 1.899 198.437 -447.1485)" id="g436">
<path style="stroke: none; stroke-width: 1; stroke-dasharray: none; stroke-linecap: butt; stroke-dashoffset: 0; stroke-linejoin: miter; stroke-miterlimit: 4; is-custom-font: none; font-file-url: none; fill: rgb(57,65,67); fill-rule: nonzero; opacity: 1;" transform=" translate(-285.2382, -52.94)" d="m 284.24 51.97 l 0.8 -0.13 c 0.65 0.5 1.07 1.23 1.24 2.2 c -1.59 -0.13 -2.27 -0.82 -2.04 -2.07 z" stroke-linecap="round"/>
</g>
		<g transform="matrix(1.899 0 0 1.899 -18.5765 -203.828)" id="g436">
<path style="stroke: none; stroke-width: 1; stroke-dasharray: none; stroke-linecap: butt; stroke-dashoffset: 0; stroke-linejoin: miter; stroke-miterlimit: 4; is-custom-font: none; font-file-url: none; fill: rgb(4,6,8); fill-rule: nonzero; opacity: 1;" transform=" translate(-170.9614, -181.07)" d="m 173.64 152.56 c -0.15 4.5 -1.31 8.75 -2.25 13.12 c -1.27 5.24 0.44 11.25 0.83 16.66 c 0.37 5.77 2.31 10.99 4.01 16.43 c 0.89 3.55 2.39 7.17 1.23 10.81 c -2.2 -1.62 -4.89 -3.45 -6.21 -5.91 c -0.73 -2.67 0.16 -5.9 -0.81 -8.6 c -1.31 -3.37 -0.6 -6.44 -0.71 -10.02 c -0.17 -5.95 1.4 -11.48 0.27 -17.45 c -4.13 7.06 -2.91 16.74 -5.94 24.27 c 0.15 -5.02 1.63 -9.7 2.17 -14.7 c -0.73 -0.71 -1.46 -1.43 -2.19 -2.14 c 0.35 -0.57 0.7 -1.15 1.05 -1.72 c 0.65 0.07 1.3 0.15 1.96 0.22 c 0.74 -2.56 1.31 -5.17 2.08 -7.72 c 0.73 -2.4 2.4 -4.42 3.11 -6.78 c 0.59 -2.12 0.93 -4.32 1.4 -6.47 z" stroke-linecap="round"/>
</g>
		<g transform="matrix(1.899 0 0 1.899 278.4839 -248.483)" id="g436">
<path style="stroke: none; stroke-width: 1; stroke-dasharray: none; stroke-linecap: butt; stroke-dashoffset: 0; stroke-linejoin: miter; stroke-miterlimit: 4; is-custom-font: none; font-file-url: none; fill: rgb(22,23,28); fill-rule: nonzero; opacity: 1;" transform=" translate(-327.39, -157.555)" d="m 329.87 156.07 c 0.01 0.94 0.02 1.89 0.02 2.84 c -1.67 0.06 -3.33 0.11 -5 0.13 c 1.58 -2.2 2.33 -2.57 4.98 -2.97 z" stroke-linecap="round"/>
</g>
		<g transform="matrix(1.899 0 0 1.899 201.5542 -140.4678)" id="g436">
<path style="stroke: none; stroke-width: 1; stroke-dasharray: none; stroke-linecap: butt; stroke-dashoffset: 0; stroke-linejoin: miter; stroke-miterlimit: 4; is-custom-font: none; font-file-url: none; fill: rgb(6,7,6); fill-rule: nonzero; opacity: 1;" transform=" translate(-286.88, -214.435)" d="m 327.77 161.81 c -7.84 12.2 -18.58 23.03 -27.79 34.18 c -2.42 2.89 -4.93 5.36 -6.2 9.02 c 2.1 -1.29 3.72 -3.03 5.33 -4.86 c 0.44 0.6 0.89 1.2 1.34 1.8 c -1.91 2.46 -4.88 5.07 -5.72 8.11 c 0.43 4.31 1.96 7.74 0.17 12.03 c -0.48 0.09 -0.95 0.17 -1.42 0.26 c -0.89 -3.3 -1.74 -5.94 -4.52 -8.14 c -2.42 1.23 -4.84 2.46 -7.28 3.68 c 3.03 -4.07 6.6 -7.45 9 -11.98 c -5.83 5.29 -12.89 10.04 -17.27 16.62 c 1.12 0.21 2.25 0.43 3.38 0.64 c -3.42 4.83 -7.5 10.03 -9.44 15.63 c -0.8 3.68 -0.6 7.33 -0.19 11.03 c 0.58 5.96 1.84 11.34 -0.17 17.23 c 0.26 -4.48 0.21 -8.95 -0.13 -13.43 l -0.03 -0.93 c -5.43 1.17 -9.28 4.45 -13.86 7.26 c 1.08 -1.56 2.17 -2.92 2.07 -4.95 c -0.05 -4.98 -0.66 -9.98 -1.2 -14.93 c -3.39 3.47 -5.03 7.72 -6.75 12.15 c -1.07 -4.01 -0.84 -8 -1.1 -12.08 c 1.12 -1.28 2.2 -2.55 3.45 -3.71 c 1.42 1.33 2.87 0.11 4.15 -0.75 c 2.77 -2.34 4.49 -5.43 7.64 -7.46 c 3.34 -2.14 6.8 -3.39 9.53 -6.44 c 5.24 -5.75 9.56 -11.54 16.28 -15.77 c 2.47 -1.94 5.37 -2.64 5.51 -6.24 c 2.23 -5.65 7.3 -10.34 11.25 -14.94 c 3.4 -4.01 7.28 -6.71 9.2 -11.44 c -1.65 -0.63 -3.31 -1.26 -4.97 -1.88 c 0.29 -1.77 0.45 -3.55 0.58 -5.33 c -4.76 1.11 -9.38 1.63 -12.84 5.45 c -0.18 -0.55 -0.36 -1.1 -0.55 -1.65 c -3.16 0.57 -5.68 2.16 -8.33 3.86 c -3.94 -3.17 -8.52 1.02 -10.16 4.68 c -0.81 1.48 -1.56 2.99 -2.25 4.53 c -1.6 -2.46 -1.12 -4.59 -0.79 -7.35 c -4.31 0.67 -7.5 3.02 -11.34 4.86 c -0.41 2.25 -0.71 4.51 -0.79 6.79 c -0.26 -2 -0.58 -3.99 -0.91 -5.98 c -0.73 -0.24 -1.45 -0.48 -2.18 -0.72 l -1.77 -0.59 c 7.03 -2.48 13.76 -5.45 21.11 -7 c 4.78 -0.99 9.17 -2.99 14 -3.71 c 6.11 -0.88 11.05 -4.4 17.25 -4.9 c 6.34 -0.54 12.35 -2.45 18.71 -2.65 z m -16.69 4.48 c 0.37 2.02 0.79 4.04 1.29 6.03 c 0.85 -2.51 0.91 -4.8 0.67 -7.42 c -0.65 0.46 -1.31 0.93 -1.96 1.39 z" stroke-linecap="round"/>
</g>
		<g transform="matrix(1.899 0 0 1.899 249.488 -227.4894)" id="g436">
<path style="stroke: none; stroke-width: 1; stroke-dasharray: none; stroke-linecap: butt; stroke-dashoffset: 0; stroke-linejoin: miter; stroke-miterlimit: 4; is-custom-font: none; font-file-url: none; fill: rgb(96,95,94); fill-rule: nonzero; opacity: 1;" transform=" translate(-312.1211, -168.61)" d="m 313.04 164.9 c 0.24 2.62 0.18 4.91 -0.67 7.42 c -0.5 -1.99 -0.92 -4.01 -1.29 -6.03 c 0.65 -0.46 1.31 -0.93 1.96 -1.39 z" stroke-linecap="round"/>
</g>
		<g transform="matrix(1.899 0 0 1.899 212.5499 -207.7493)" id="g436">
<path style="stroke: none; stroke-width: 1; stroke-dasharray: none; stroke-linecap: butt; stroke-dashoffset: 0; stroke-linejoin: miter; stroke-miterlimit: 4; is-custom-font: none; font-file-url: none; fill: rgb(119,104,98); fill-rule: nonzero; opacity: 1;" transform=" translate(-292.67, -179.005)" d="m 308.61 166.19 c -0.13 1.78 -0.29 3.56 -0.58 5.33 c -0.61 1.21 -1.26 2.39 -1.92 3.58 c -0.17 -2.38 -0.31 -4.75 -0.48 -7.12 c -4.51 6.35 -7.44 13.46 -9.47 20.94 c -0.43 -3.95 -0.61 -7.86 -0.49 -11.84 c -0.69 2.44 -1.52 4.81 -2.56 7.11 c -0.28 -1.36 -0.54 -2.72 -0.79 -4.09 c -0.91 3.72 -2 7.36 -3.38 10.93 c -0.4 -2.61 -0.91 -5.18 -1.7 -7.7 c -2.79 2.53 -3.22 4.9 -3.7 8.49 c -1.24 -2.03 -2.55 -4.03 -3.73 -6.09 c -1.24 -2.33 -2.1 -4.76 -3.08 -7.2 c 1.64 -3.66 6.22 -7.85 10.16 -4.68 c 2.65 -1.7 5.17 -3.29 8.33 -3.86 c 0.19 0.55 0.37 1.1 0.55 1.65 c 3.46 -3.82 8.08 -4.34 12.84 -5.45 z" stroke-linecap="round"/>
</g>
		<g transform="matrix(1.899 0 0 1.899 185.53 -160.1603)" id="g436">
<path style="stroke: none; stroke-width: 1; stroke-dasharray: none; stroke-linecap: butt; stroke-dashoffset: 0; stroke-linejoin: miter; stroke-miterlimit: 4; is-custom-font: none; font-file-url: none; fill: rgb(1,1,1); fill-rule: nonzero; opacity: 1;" transform=" translate(-278.4418, -204.065)" d="m 305.63 167.98 c 0.17 2.37 0.31 4.74 0.48 7.12 c 0.66 -1.19 1.31 -2.37 1.92 -3.58 c 1.66 0.62 3.32 1.25 4.97 1.88 c -1.92 4.73 -5.8 7.43 -9.2 11.44 c -3.95 4.6 -9.02 9.29 -11.25 14.94 c -3.25 2.72 -6.78 5.05 -10.15 7.62 c -7.51 5.91 -11.66 13.35 -19.91 18.2 c -2.3 1.56 -4.32 2.17 -7.05 2.38 c -1.49 3.52 -2.87 6.15 -6 8.46 c -1.25 1.16 -2.33 2.43 -3.45 3.71 c -0.48 -4.45 -1.83 -8.62 -2.01 -13.1 c -0.35 -5.05 0.39 -10.05 0.07 -15.11 c 0.6 -0.53 1.2 -1.06 1.81 -1.57 c 3.44 -2.9 7.79 -4.6 11.85 -6.81 c 3.05 -1.39 5.9 -3.06 8.72 -4.84 c 1.11 -0.45 2.22 -0.89 3.31 -1.4 c 2.63 -2.49 5.21 -5.04 7.95 -7.43 c 0.95 -1.27 1.52 -2.71 2.12 -4.16 c 1.18 2.06 2.49 4.06 3.73 6.09 c 0.48 -3.59 0.91 -5.96 3.7 -8.49 c 0.79 2.52 1.3 5.09 1.7 7.7 c 1.38 -3.57 2.47 -7.21 3.38 -10.93 c 0.25 1.37 0.51 2.73 0.79 4.09 c 1.04 -2.3 1.87 -4.67 2.56 -7.11 c -0.12 3.98 0.06 7.89 0.49 11.84 c 2.03 -7.48 4.96 -14.59 9.47 -20.94 z" stroke-linecap="round"/>
</g>
		<g transform="matrix(1.899 0 0 1.899 -36.4774 -220.9094)" id="g436">
<path style="stroke: none; stroke-width: 1; stroke-dasharray: none; stroke-linecap: butt; stroke-dashoffset: 0; stroke-linejoin: miter; stroke-miterlimit: 4; is-custom-font: none; font-file-url: none; fill: rgb(5,6,10); fill-rule: nonzero; opacity: 1;" transform=" translate(-161.535, -172.075)" d="m 161.71 169.12 c 1.17 1.37 2.27 2.78 3.38 4.19 c -0.35 0.57 -0.7 1.15 -1.05 1.72 c -2.02 -0.04 -4.04 -0.09 -6.06 -0.17 c 1.02 -2.07 2.16 -4.03 3.73 -5.74 z" stroke-linecap="round"/>
</g>
		<g transform="matrix(1.899 0 0 1.899 165.7392 -195.0068)" id="g436">
<path style="stroke: none; stroke-width: 1; stroke-dasharray: none; stroke-linecap: butt; stroke-dashoffset: 0; stroke-linejoin: miter; stroke-miterlimit: 4; is-custom-font: none; font-file-url: none; fill: rgb(114,94,90); fill-rule: nonzero; opacity: 1;" transform=" translate(-268.02, -185.715)" d="m 273.69 175.71 c -0.33 2.76 -0.81 4.89 0.79 7.35 c -0.39 1.58 -0.72 3.18 -1.15 4.75 c -0.53 0.84 -1.07 1.67 -1.6 2.5 c -0.83 -0.09 -1.65 -0.18 -2.48 -0.28 c -0.89 1.9 -1.79 3.8 -2.69 5.69 c -2.94 -2.02 -1.33 -8.01 -1.21 -11.03 c 0.89 2.02 1.68 4.08 2.3 6.21 c -0.88 -3.67 -0.56 -7.26 -0.17 -10.95 c -3.56 1.81 -4.29 4.98 -5.85 8.34 l -0.07 -0.93 c 0.08 -2.28 0.38 -4.54 0.79 -6.79 c 3.84 -1.84 7.03 -4.19 11.34 -4.86 z" stroke-linecap="round"/>
</g>
		<g transform="matrix(1.899 0 0 1.899 82.6569 -147.4463)" id="g436">
<path style="stroke: none; stroke-width: 1; stroke-dasharray: none; stroke-linecap: butt; stroke-dashoffset: 0; stroke-linejoin: miter; stroke-miterlimit: 4; is-custom-font: none; font-file-url: none; fill: rgb(46,37,33); fill-rule: nonzero; opacity: 1;" transform=" translate(-224.27, -210.76)" d="m 256.7 180.07 l 1.77 0.59 c -5.84 3.31 -12.2 4.74 -18.27 7.54 c -4.76 2.21 -9.5 3.35 -13.6 6.82 c 5.23 6.05 11.65 12.48 19.26 15.35 c -0.61 0.51 -1.21 1.04 -1.81 1.57 c -1.39 -1.18 -2.78 -2.37 -4.22 -3.5 c -1.31 3.54 -1.83 7.22 -2.74 10.85 c -1.14 4.79 -5.41 8.76 -9.41 11.32 c -3.87 2.48 -8.26 2.2 -12.68 2.33 c -3.19 -0.04 -6.56 0.12 -9.69 -0.55 c -2.68 -1.01 -5.02 -2.97 -7.51 -4.36 c 0.09 1.51 0.07 3.12 0.46 4.59 c 2.35 2.74 5.66 3.69 9.05 4.43 c 5.76 1.21 11.03 0.56 16.9 1.14 c -1.71 1.07 -2.91 2.41 -5.11 1.95 c -5.41 -0.82 -10.76 -2.61 -16.23 -3.17 c -1.4 -0.23 -2.43 0.37 -3.65 0.91 c 0.32 1.19 0.65 2.39 0.98 3.57 c -3.17 -2 -4.72 -6.11 -6.8 -9.24 c -0.67 2.58 -0.92 4.36 -3.33 5.86 c 0.85 -4.5 3.02 -8.42 4.31 -12.74 c 1.39 -4.87 0.19 -10.15 2.44 -14.51 c 1.61 -3.26 3.54 -6.39 5.56 -9.41 c 3 -5.18 10.31 -7.02 15.55 -9.27 c -2.78 3.21 -6.27 4.94 -9.95 6.88 c -3.18 1.52 -3.95 5.85 -5.13 8.86 c -2.09 6.1 -4.97 11.24 -4.02 17.98 c 2.97 3.27 7.37 6.91 12.1 6.49 c 4.85 0 10.96 0.5 15.28 -2 c 3.92 -2.17 7.72 -5.64 9.38 -9.89 c 1.64 -4.25 2.47 -8.75 2.24 -13.31 c -4.47 -1.53 -4.65 3.07 -8.67 3.87 c -3.07 0.83 -5.11 2.42 -7.37 4.55 c 0.38 -1.17 0.73 -2.39 1.26 -3.51 c 1.41 -1.25 3.2 -2.13 4.81 -3.1 c -1.9 -2.6 -4.02 -5.22 -5.58 -8.04 c -0.09 -2.33 -0.43 -5.37 1.51 -7.09 c 3.77 -3.8 8.26 -5.09 12.96 -7.18 c 5.94 -3.16 13.1 -6.55 19.95 -6.58 z" stroke-linecap="round"/>
</g>
		<g transform="matrix(1.899 0 0 1.899 181.9759 -197.8648)" id="g436">
<path style="stroke: none; stroke-width: 1; stroke-dasharray: none; stroke-linecap: butt; stroke-dashoffset: 0; stroke-linejoin: miter; stroke-miterlimit: 4; is-custom-font: none; font-file-url: none; fill: rgb(161,135,124); fill-rule: nonzero; opacity: 1;" transform=" translate(-276.57, -184.21)" d="m 276.73 178.53 c 0.98 2.44 1.84 4.87 3.08 7.2 c -0.6 1.45 -1.17 2.89 -2.12 4.16 c -1.43 -0.73 -2.88 -1.45 -4.36 -2.08 c 0.43 -1.57 0.76 -3.17 1.15 -4.75 c 0.69 -1.54 1.44 -3.05 2.25 -4.53 z" stroke-linecap="round"/>
</g>
		<g transform="matrix(1.899 0 0 1.899 128.0436 -177.0707)" id="g436">
<path style="stroke: none; stroke-width: 1; stroke-dasharray: none; stroke-linecap: butt; stroke-dashoffset: 0; stroke-linejoin: miter; stroke-miterlimit: 4; is-custom-font: none; font-file-url: none; fill: rgb(165,130,122); fill-rule: nonzero; opacity: 1;" transform=" translate(-248.17, -195.16)" d="m 267.48 179.95 c -0.39 3.69 -0.71 7.28 0.17 10.95 c -0.62 -2.13 -1.41 -4.19 -2.3 -6.21 c -0.12 3.02 -1.73 9.01 1.21 11.03 c 1.05 0.56 2.11 1.08 3.18 1.6 c -1.09 0.51 -2.2 0.95 -3.31 1.4 c -3.21 -0.1 -6.12 0.4 -8.44 2.81 c -0.12 0.68 -0.21 1.35 -0.28 2.03 c -4.06 2.21 -8.41 3.91 -11.85 6.81 c -7.61 -2.87 -14.03 -9.3 -19.26 -15.35 c 4.1 -3.47 8.84 -4.61 13.6 -6.82 c 6.07 -2.8 12.43 -4.23 18.27 -7.54 c 0.73 0.24 1.45 0.48 2.18 0.72 c 0.33 1.99 0.65 3.98 0.91 5.98 l 0.07 0.93 c 1.56 -3.36 2.29 -6.53 5.85 -8.34 z" stroke-linecap="round"/>
</g>
		<g transform="matrix(1.899 0 0 1.899 173.5347 -181.9986)" id="g436">
<path style="stroke: none; stroke-width: 1; stroke-dasharray: none; stroke-linecap: butt; stroke-dashoffset: 0; stroke-linejoin: miter; stroke-miterlimit: 4; is-custom-font: none; font-file-url: none; fill: rgb(236,208,190); fill-rule: nonzero; opacity: 1;" transform=" translate(-272.125, -192.565)" d="m 273.33 187.81 c 1.48 0.63 2.93 1.35 4.36 2.08 c -2.74 2.39 -5.32 4.94 -7.95 7.43 c -1.07 -0.52 -2.13 -1.04 -3.18 -1.6 c 0.9 -1.89 1.8 -3.79 2.69 -5.69 c 0.83 0.1 1.65 0.19 2.48 0.28 c 0.53 -0.83 1.07 -1.66 1.6 -2.5 z" stroke-linecap="round"/>
</g>
		<g transform="matrix(1.899 0 0 1.899 71.2355 -139.0992)" id="g436">
<path style="stroke: none; stroke-width: 1; stroke-dasharray: none; stroke-linecap: butt; stroke-dashoffset: 0; stroke-linejoin: miter; stroke-miterlimit: 4; is-custom-font: none; font-file-url: none; fill: rgb(165,130,122); fill-rule: nonzero; opacity: 1;" transform=" translate(-218.2555, -215.1554)" d="m 220.55 197.92 c 0.59 0.99 1.16 2 1.73 3 c 1.56 2.82 3.68 5.44 5.58 8.04 c -1.61 0.97 -3.4 1.85 -4.81 3.1 c -0.53 1.12 -0.88 2.34 -1.26 3.51 c 2.26 -2.13 4.3 -3.72 7.37 -4.55 c 4.02 -0.8 4.2 -5.4 8.67 -3.87 c 0.23 4.56 -0.6 9.06 -2.24 13.31 c -1.66 4.25 -5.46 7.72 -9.38 9.89 c -4.32 2.5 -10.43 2 -15.28 2 c -4.73 0.42 -9.13 -3.22 -12.1 -6.49 c -0.95 -6.74 1.93 -11.88 4.02 -17.98 c 2.14 -2.41 4.8 -4.03 7.73 -5.3 c 3.36 -1.47 6.6 -3.2 9.97 -4.66 z" stroke-linecap="round"/>
</g>
		<g transform="matrix(1.899 0 0 1.899 154.4401 -165.7257)" id="g436">
<path style="stroke: none; stroke-width: 1; stroke-dasharray: none; stroke-linecap: butt; stroke-dashoffset: 0; stroke-linejoin: miter; stroke-miterlimit: 4; is-custom-font: none; font-file-url: none; fill: rgb(180,161,148); fill-rule: nonzero; opacity: 1;" transform=" translate(-262.07, -201.1341)" d="m 266.43 198.72 c -2.82 1.78 -5.67 3.45 -8.72 4.84 c 0.07 -0.68 0.16 -1.35 0.28 -2.03 c 2.32 -2.41 5.23 -2.91 8.44 -2.81 z" stroke-linecap="round"/>
</g>
		<g transform="matrix(1.899 0 0 1.899 171.3886 -132.9293)" id="g436">
<path style="stroke: none; stroke-width: 1; stroke-dasharray: none; stroke-linecap: butt; stroke-dashoffset: 0; stroke-linejoin: miter; stroke-miterlimit: 4; is-custom-font: none; font-file-url: none; fill: rgb(28,31,29); fill-rule: nonzero; opacity: 1;" transform=" translate(-270.995, -218.4044)" d="m 292.55 199.78 c -0.14 3.6 -3.04 4.3 -5.51 6.24 c -6.72 4.23 -11.04 10.02 -16.28 15.77 c -2.73 3.05 -6.19 4.3 -9.53 6.44 c -3.15 2.03 -4.87 5.12 -7.64 7.46 c -1.28 0.86 -2.73 2.08 -4.15 0.75 c 3.13 -2.31 4.51 -4.94 6 -8.46 c 2.73 -0.21 4.75 -0.82 7.05 -2.38 c 8.25 -4.85 12.4 -12.29 19.91 -18.2 c 3.37 -2.57 6.9 -4.9 10.15 -7.62 z" stroke-linecap="round"/>
</g>
		<g transform="matrix(1.899 0 0 1.899 167.1012 126.181)" id="g436">
<path style="stroke: none; stroke-width: 1; stroke-dasharray: none; stroke-linecap: butt; stroke-dashoffset: 0; stroke-linejoin: miter; stroke-miterlimit: 4; is-custom-font: none; font-file-url: none; fill: rgb(58,63,66); fill-rule: nonzero; opacity: 1;" transform=" translate(-268.7373, -354.85)" d="m 290.68 205.91 c -2.4 4.53 -5.97 7.91 -9 11.98 c 2.44 -1.22 4.86 -2.45 7.28 -3.68 c 2.78 2.2 3.63 4.84 4.52 8.14 c 0.47 -0.09 0.94 -0.17 1.42 -0.26 c -1.79 5.14 -2.42 10.44 -3.7 15.7 c -0.77 3.14 -1.43 6.3 -1.96 9.49 c -0.22 -0.77 -0.45 -1.54 -0.69 -2.31 c -1.02 7.95 -2.54 15.8 -3.63 23.74 c -0.96 7.49 -5.19 13.6 -5.51 21.08 c -0.45 6.77 -1.57 13.45 -1.78 20.24 c -0.22 8.52 -1.55 16.91 -1.67 25.43 c -0.81 6.55 -2.04 12.81 -1.01 19.45 c 3.49 -1.77 7.09 -4.88 10.98 -5.48 c 3.12 0.48 5.25 3.56 5.96 6.49 c -2.12 -1.56 -4.03 -3.34 -5.9 -5.19 c -3.7 1.76 -7.59 3.76 -10.67 6.49 c -1.4 1.17 -1.3 2.95 -1.61 4.63 c -0.57 5.92 -1.14 11.85 -1.68 17.78 c -1.3 8.04 -1.48 16.18 -0.86 24.3 l 1.63 -0.11 c -0.39 -5.98 -0.3 -11.81 0.62 -17.75 c 0.51 0.98 1.01 1.97 1.49 2.97 c 3.82 11.2 5.95 22.7 6.96 34.46 c -1.76 3.54 -3.08 7.24 -4.49 10.93 c -1.66 4.37 -4.39 8.13 -6.13 12.46 c 0.49 0.5 0.98 1 1.48 1.51 c -0.31 1.86 -0.62 3.73 -0.92 5.6 c -0.5 -1.3 -1 -2.59 -1.51 -3.89 c -1.45 4.97 -1.45 8.27 0.03 13.27 c -0.99 7.45 -4.54 14.13 -5.32 21.58 c -0.24 2.21 -1.1 4.04 -2.37 5.83 c -3.16 3.3 -5.24 6.84 -6.94 11.07 c -1.58 0.64 -3.16 1.29 -4.74 1.93 c 0.51 -4.69 1.13 -9.2 0.34 -13.91 c -1.46 -7.99 -0.69 -16.75 -0.43 -24.88 c 0.13 -4.81 0.95 -9.49 2.08 -14.16 c 1.25 -5.14 1.44 -10.39 2.48 -15.55 c 3.5 -13.2 -0.81 -28.69 -0.33 -42.3 c 0.09 -1.81 1.61 -3.53 2.6 -5 c -1.44 -0.78 -2.82 -0.8 -2.98 -2.74 c -0.92 -10.34 -0.93 -20.87 -0.94 -31.25 c -0.11 -5.49 -0.32 -10.94 0.27 -16.41 c 1.07 -11.22 -0.97 -22.47 0.22 -33.63 c 0.09 -3.42 0.07 -6.3 -3.31 -8.08 c -1.66 -2.14 -2.65 -4.36 -4.66 -6.17 c -1.23 -1.2 -2.8 -2.3 -3.71 -3.78 c -0.12 -2.19 0.49 -4.53 0.93 -6.68 l 0.19 -0.87 l 1.52 1.61 c 0.35 3.74 -0.15 6.88 3.27 9.36 c -0.04 -3.5 -1.29 -8.71 1.25 -11.55 c 3.16 -2.17 6.62 -1.59 10.14 -0.91 c 0.78 15.49 0.5 31.19 0.1 46.69 l 1.33 -0.25 c 1.24 -0.22 2.48 -0.43 3.71 -0.65 c 0.14 -4.01 0.03 -7.99 0.54 -11.98 c 0.87 -7.82 0.23 -15.82 0.42 -23.7 c 0.2 -7.06 -0.78 -13.28 1 -19.94 c 2.01 -5.89 0.75 -11.27 0.17 -17.23 c 0.95 -4.03 1.06 -6.96 0.19 -11.03 c 1.94 -5.6 6.02 -10.8 9.44 -15.63 c -1.13 -0.21 -2.26 -0.43 -3.38 -0.64 c 4.38 -6.58 11.44 -11.33 17.27 -16.62 z m -33.59 185.84 c 0.06 5.49 1.6 10.74 1.76 16.21 c 0.19 3.94 -0.02 7.63 1.77 11.26 c 0.22 -5.63 -0.45 -11.38 -0.94 -16.99 c -0.31 -3.65 -1.02 -7.15 -2.59 -10.48 z m 10.88 54.47 c 4.01 -8.42 4.28 -18.97 5.11 -28.19 c -0.07 -3.06 0.74 -7.39 -0.89 -10.08 c -0.62 6.67 -0.39 13.4 -1.06 20.07 c -0.38 6.26 -3.07 11.89 -3.16 18.2 z" stroke-linecap="round"/>
</g>
		<g transform="matrix(1.899 0 0 1.899 70.8926 -84.6175)" id="g436">
<path style="stroke: none; stroke-width: 1; stroke-dasharray: none; stroke-linecap: butt; stroke-dashoffset: 0; stroke-linejoin: miter; stroke-miterlimit: 4; is-custom-font: none; font-file-url: none; fill: rgb(146,121,122); fill-rule: nonzero; opacity: 1;" transform=" translate(-218.075, -243.845)" d="m 239.83 208.44 c 1.44 1.13 2.83 2.32 4.22 3.5 c 0.32 5.06 -0.42 10.06 -0.07 15.11 c 0.18 4.48 1.53 8.65 2.01 13.1 c 0.26 4.08 0.03 8.07 1.1 12.08 l 0.32 1.58 c -1.78 8.13 -1.93 16.44 -3.7 24.57 l -0.19 0.87 c -0.77 -5.33 -3.24 -9.96 -4.45 -15.17 c 2.3 -3.43 5.07 -5.77 6.14 -9.88 c -6.78 2.38 -11.19 7.38 -17.46 10.53 c -6.31 3.13 -12.67 5.59 -19.8 5.93 c -6.68 0.52 -12.69 -1.06 -19.21 -2.11 c 1.27 -2.68 3.44 -4.12 5.59 -5.98 c 1.12 -1.59 1.89 -3.46 2.86 -5.15 c 0.15 0.98 0.3 1.96 0.47 2.94 c 2.35 -2.04 5.06 -4.55 6.21 -7.5 c -0.09 -3.94 -1.77 -7.99 -3.67 -11.41 c -0.33 -1.18 -0.66 -2.38 -0.98 -3.57 c 1.22 -0.54 2.25 -1.14 3.65 -0.91 c 5.47 0.56 10.82 2.35 16.23 3.17 c 2.2 0.46 3.4 -0.88 5.11 -1.95 c -5.87 -0.58 -11.14 0.07 -16.9 -1.14 c -3.39 -0.74 -6.7 -1.69 -9.05 -4.43 c -0.39 -1.47 -0.37 -3.08 -0.46 -4.59 c 2.49 1.39 4.83 3.35 7.51 4.36 c 3.13 0.67 6.5 0.51 9.69 0.55 c 4.42 -0.13 8.81 0.15 12.68 -2.33 c 4 -2.56 8.27 -6.53 9.41 -11.32 c 0.91 -3.63 1.43 -7.31 2.74 -10.85 z" stroke-linecap="round"/>
</g>
		<g transform="matrix(1.899 0 0 1.899 -6.0932 -125.8258)" id="g436">
<path style="stroke: none; stroke-width: 1; stroke-dasharray: none; stroke-linecap: butt; stroke-dashoffset: 0; stroke-linejoin: miter; stroke-miterlimit: 4; is-custom-font: none; font-file-url: none; fill: rgb(3,5,2); fill-rule: nonzero; opacity: 1;" transform=" translate(-177.535, -222.145)" d="m 170.96 209.75 c 1.16 1.91 2.23 3.87 3.24 5.87 c 1.23 -1.69 2.5 -3.34 3.84 -4.94 c 0.77 2.43 1.31 4.91 1.76 7.42 c 0.53 2.19 2.96 3.71 4.31 5.47 c -1.03 0.1 -2.06 0.23 -3.08 0.38 c -3.44 2.75 -4.18 6.53 -5.19 10.59 c -1.33 -1.81 -2.25 -3.52 -2.49 -5.8 c -0.78 -6.33 -2.07 -12.62 -2.39 -18.99 z" stroke-linecap="round"/>
</g>
		<g transform="matrix(1.899 0 0 1.899 3.762 -129.5856)" id="g436">
<path style="stroke: none; stroke-width: 1; stroke-dasharray: none; stroke-linecap: butt; stroke-dashoffset: 0; stroke-linejoin: miter; stroke-miterlimit: 4; is-custom-font: none; font-file-url: none; fill: rgb(142,138,131); fill-rule: nonzero; opacity: 1;" transform=" translate(-182.7246, -220.165)" d="m 182.24 215.72 c 2.9 1.79 4.03 5.7 3.08 8.89 l -1.21 -1.04 c -1.35 -1.76 -3.78 -3.28 -4.31 -5.47 c 0.8 -0.8 1.61 -1.6 2.44 -2.38 z" stroke-linecap="round"/>
</g>
		<g transform="matrix(1.899 0 0 1.899 -13.6418 -28.1789)" id="g436">
<path style="stroke: none; stroke-width: 1; stroke-dasharray: none; stroke-linecap: butt; stroke-dashoffset: 0; stroke-linejoin: miter; stroke-miterlimit: 4; is-custom-font: none; font-file-url: none; fill: rgb(145,142,129); fill-rule: nonzero; opacity: 1;" transform=" translate(-173.56, -273.565)" d="m 181.03 223.95 c -0.14 2.13 -0.29 4.26 -0.52 6.38 c -0.12 0.6 -0.24 1.2 -0.37 1.8 c -1.57 7.5 -3.41 15.14 -4.45 22.74 c -0.17 1.23 -0.34 2.46 -0.53 3.69 c -1.51 6.54 -1.63 13.12 -2.09 19.77 c -1.18 8.5 -1.03 17.1 -2.11 25.6 c -0.99 6.62 0.48 12.75 -1.9 19.25 c -0.99 -0.49 -1.98 -0.98 -2.97 -1.47 c 0.11 -4.92 0.82 -9.78 0.66 -14.71 c -0.22 -11.67 2.24 -22.91 2.86 -34.45 c 1.13 -5.96 1.7 -11.98 2.99 -17.91 c 1.04 -6.7 2.65 -13.34 3.24 -20.1 c 1.01 -4.06 1.75 -7.84 5.19 -10.59 z" stroke-linecap="round"/>
</g>
		<g transform="matrix(1.899 0 0 1.899 4.1236 -116.7009)" id="g436">
<path style="stroke: none; stroke-width: 1; stroke-dasharray: none; stroke-linecap: butt; stroke-dashoffset: 0; stroke-linejoin: miter; stroke-miterlimit: 4; is-custom-font: none; font-file-url: none; fill: rgb(34,33,29); fill-rule: nonzero; opacity: 1;" transform=" translate(-182.915, -226.95)" d="m 181.03 223.95 c 1.02 -0.15 2.05 -0.28 3.08 -0.38 l 1.21 1.04 c -1.29 2.09 -2.46 4.73 -4.81 5.72 c 0.23 -2.12 0.38 -4.25 0.52 -6.38 z" stroke-linecap="round"/>
</g>
		<g transform="matrix(1.899 0 0 1.899 2.7753 -82.1674)" id="g436">
<path style="stroke: none; stroke-width: 1; stroke-dasharray: none; stroke-linecap: butt; stroke-dashoffset: 0; stroke-linejoin: miter; stroke-miterlimit: 4; is-custom-font: none; font-file-url: none; fill: rgb(4,4,3); fill-rule: nonzero; opacity: 1;" transform=" translate(-182.205, -245.135)" d="m 180.14 232.13 c 2.52 3.08 5.77 5.22 8.58 8 c -2.53 3.75 -5.56 6.9 -7.55 11.01 c -1.33 2.75 -2.84 4.99 -5.17 7 c -0.12 -1.09 -0.22 -2.18 -0.31 -3.27 c 1.04 -7.6 2.88 -15.24 4.45 -22.74 z" stroke-linecap="round"/>
</g>
		<g transform="matrix(1.899 0 0 1.899 -205.8411 -77.4863)" id="g436">
<path style="stroke: none; stroke-width: 1; stroke-dasharray: none; stroke-linecap: butt; stroke-dashoffset: 0; stroke-linejoin: miter; stroke-miterlimit: 4; is-custom-font: none; font-file-url: none; fill: rgb(45,48,52); fill-rule: nonzero; opacity: 1;" transform=" translate(-72.35, -247.6)" d="m 79.78 232.7 c -1.5 8.55 -6.23 14.62 -9.25 22.63 c -0.9 2.49 -1.94 4.87 -3.25 7.17 c -0.8 -0.92 -1.59 -1.86 -2.36 -2.81 l 0.09 -0.68 c 2.21 -0.58 2.67 -1.96 3.11 -3.99 c 2.1 -4.76 4.65 -9.31 6.84 -14.04 c 1.34 -2.96 2.93 -5.63 4.82 -8.28 z" stroke-linecap="round"/>
</g>
		<g transform="matrix(1.899 0 0 1.899 164.5082 -83.7245)" id="g436">
<path style="stroke: none; stroke-width: 1; stroke-dasharray: none; stroke-linecap: butt; stroke-dashoffset: 0; stroke-linejoin: miter; stroke-miterlimit: 4; is-custom-font: none; font-file-url: none; fill: rgb(130,130,129); fill-rule: nonzero; opacity: 1;" transform=" translate(-267.3717, -244.315)" d="m 267.35 238.8 c 0.87 4.07 0.76 7 -0.19 11.03 c -0.41 -3.7 -0.61 -7.35 0.19 -11.03 z" stroke-linecap="round"/>
</g>
		<g transform="matrix(1.899 0 0 1.899 133.5476 -70.3935)" id="g436">
<path style="stroke: none; stroke-width: 1; stroke-dasharray: none; stroke-linecap: butt; stroke-dashoffset: 0; stroke-linejoin: miter; stroke-miterlimit: 4; is-custom-font: none; font-file-url: none; fill: rgb(60,63,64); fill-rule: nonzero; opacity: 1;" transform=" translate(-251.0682, -251.335)" d="m 253.84 240.08 c 0.54 4.95 1.15 9.95 1.2 14.93 c 0.1 2.03 -0.99 3.39 -2.07 4.95 c -1.55 0.95 -3.19 1.78 -4.79 2.63 c 0.02 -2.96 -0.08 -5.89 -0.77 -8.78 l -0.32 -1.58 c 1.72 -4.43 3.36 -8.68 6.75 -12.15 z" stroke-linecap="round"/>
</g>
		<g transform="matrix(1.899 0 0 1.899 201.9348 -58.6196)" id="g436">
<path style="stroke: none; stroke-width: 1; stroke-dasharray: none; stroke-linecap: butt; stroke-dashoffset: 0; stroke-linejoin: miter; stroke-miterlimit: 4; is-custom-font: none; font-file-url: none; fill: rgb(22,25,29); fill-rule: nonzero; opacity: 1;" transform=" translate(-287.0802, -257.535)" d="m 288.55 244.97 c 0.24 0.77 0.47 1.54 0.69 2.31 c 0.02 7.66 -0.93 15.19 -1.45 22.82 c -0.94 -0.49 -1.9 -0.95 -2.87 -1.39 c 1.09 -7.94 2.61 -15.79 3.63 -23.74 z" stroke-linecap="round"/>
</g>
		<g transform="matrix(1.899 0 0 1.899 0.5379 10.4377)" id="g436">
<path style="stroke: none; stroke-width: 1; stroke-dasharray: none; stroke-linecap: butt; stroke-dashoffset: 0; stroke-linejoin: miter; stroke-miterlimit: 4; is-custom-font: none; font-file-url: none; fill: rgb(3,2,2); fill-rule: nonzero; opacity: 1;" transform=" translate(-181.0269, -293.9)" d="m 182.19 252.9 c 2.13 3.72 3.6 7.76 5.87 11.42 c 2.7 -3.55 4.84 -6.13 9.23 -7.59 l -0.1 0.69 c -0.97 1.69 -1.74 3.56 -2.86 5.15 c -2.15 1.86 -4.32 3.3 -5.59 5.98 c -2.66 6.03 -4.45 13.22 -5.44 19.74 c -0.76 -4.07 -1.99 -8 -4.13 -11.57 c -0.32 5.63 0.99 10.93 1.45 16.49 c -0.28 1.96 -0.78 3.85 -1.29 5.75 c -2.51 2.33 -4.32 4.78 -5.19 8.15 c -0.75 3.82 -1.81 7.54 -2.77 11.32 c -0.75 2.3 1.49 4.99 -0.12 6.82 c -1.9 2.65 -2.47 5.63 -3.21 8.74 c -0.51 0.3 -1.02 0.6 -1.52 0.91 c 0.04 -0.94 0.07 -1.88 0.1 -2.82 l 1.3 0.3 c 0.37 -2.83 0.77 -5.67 1.08 -8.52 c -0.84 0.42 -1.68 0.84 -2.51 1.26 c -1.02 -1.5 -2.05 -2.51 -1.63 -4.47 c 1.33 -8.21 1.09 -16.41 1.5 -24.7 c 0.13 -5.39 1.22 -10.62 1.62 -16 c 0.19 -2.62 0.73 -4.95 1.63 -7.4 c -0.62 11.54 -3.08 22.78 -2.86 34.45 c 0.16 4.93 -0.55 9.79 -0.66 14.71 c 0.99 0.49 1.98 0.98 2.97 1.47 c 2.38 -6.5 0.91 -12.63 1.9 -19.25 c 1.08 -8.5 0.93 -17.1 2.11 -25.6 c 0.46 -6.65 0.58 -13.23 2.09 -19.77 c 3.33 5.21 1.97 10.27 3.57 16.42 c 1.08 -5.02 -1.12 -9.04 -1.14 -13.99 c 0.13 -3.02 2.69 -5.9 4.6 -8.09 z" stroke-linecap="round"/>
</g>
		<g transform="matrix(1.899 0 0 1.899 141.5552 -41.8892)" id="g436">
<path style="stroke: none; stroke-width: 1; stroke-dasharray: none; stroke-linecap: butt; stroke-dashoffset: 0; stroke-linejoin: miter; stroke-miterlimit: 4; is-custom-font: none; font-file-url: none; fill: rgb(43,42,41); fill-rule: nonzero; opacity: 1;" transform=" translate(-255.285, -266.345)" d="m 266.83 252.7 l 0.03 0.93 c -1.81 1.67 -3.63 3.38 -5.64 4.8 c -4.29 1.06 -6.71 4.06 -9.81 6.95 c -4.06 3.47 -4.04 9.62 -6.18 14.61 l -1.52 -1.61 c 1.77 -8.13 1.92 -16.44 3.7 -24.57 c 0.69 2.89 0.79 5.82 0.77 8.78 c 1.6 -0.85 3.24 -1.68 4.79 -2.63 c 4.58 -2.81 8.43 -6.09 13.86 -7.26 z" stroke-linecap="round"/>
</g>
		<g transform="matrix(1.899 0 0 1.899 48.0567 152.0078)" id="g436">
<path style="stroke: none; stroke-width: 1; stroke-dasharray: none; stroke-linecap: butt; stroke-dashoffset: 0; stroke-linejoin: miter; stroke-miterlimit: 4; is-custom-font: none; font-file-url: none; fill: rgb(214,199,187); fill-rule: nonzero; opacity: 1;" transform=" translate(-206.05, -368.4498)" d="m 245.21 254.2 c -1.07 4.11 -3.84 6.45 -6.14 9.88 c 1.21 5.21 3.68 9.84 4.45 15.17 c -0.44 2.15 -1.05 4.49 -0.93 6.68 c 0.91 1.48 2.48 2.58 3.71 3.78 c 2.01 1.81 3 4.03 4.66 6.17 c -0.28 1.55 -0.51 3.1 -0.81 4.65 c -4.3 13.03 -9 25.95 -13.87 38.78 c -3.19 8.54 -5.88 17.23 -9.34 25.68 c -4.6 11.36 -9.09 22.68 -12.61 34.43 c 1.03 -0.81 2.03 -1.41 2.49 -2.72 c 1.8 -4.35 2.73 -9.03 4.49 -13.42 c 4.74 -12.01 9.58 -23.98 13.77 -36.2 c 2.92 -8.63 6.43 -17.04 9.3 -25.68 c 0.91 -2.77 2.11 -5.28 3.63 -7.76 c 1.68 5.96 2.43 12.18 2.1 18.37 c -0.2 2.57 0.18 4.98 0.76 7.47 c -0.81 5.27 -2.44 10.46 -3.68 15.65 c -2.11 8.55 -2.74 17.22 -4.39 25.87 c -0.61 6.68 -1.39 13.28 -3.16 19.77 c -1.83 4.39 -3.32 8.78 -4.5 13.39 c 1.13 -1.37 2.22 -2.76 3.32 -4.16 c 3.02 1.33 3.64 3.17 4.51 6.17 c 1 6.26 2.3 12.3 1.92 18.71 c -4.3 10.21 -13.76 13.86 -22.34 19.65 c -7.62 5.35 -15.8 9.8 -24.24 13.7 c -4.57 2.22 -9.94 2.25 -11.33 8.07 c 3.1 -1.29 4.86 -4.11 8.04 -5.24 c 10.11 -3.84 19.63 -9.36 28.51 -15.51 c 5.44 -3.69 11.32 -6.58 16.86 -10.12 c 1.02 1.11 2.03 2.24 3.01 3.38 c -3.25 2.29 -6.56 4.46 -9.74 6.85 c -7.42 5.68 -16.6 9.47 -24.86 14.11 c -8.37 4.65 -17.26 8.01 -25.92 12.03 c -2.64 1.33 -6.19 0.7 -9.1 0.82 c -4.22 0.14 -8.42 0.08 -12.64 -0.06 c 0.34 -3.19 0.22 -6.95 1.59 -9.87 c 4.94 -2.04 11.29 -0.36 16.6 -1.19 c -5.28 -0.56 -10.78 -0.04 -16.15 -0.05 c -0.1 -6.42 0.37 -12.77 1.41 -19.1 c 3.86 -1.39 7.91 -1.73 11.69 -3.3 c 3.88 -1.61 7.81 -3.18 11.61 -4.98 c -6.01 1.41 -11.31 5.44 -17.35 5.65 c -1.96 0.17 -3.86 1.18 -5.73 1.76 c -0.13 -7.35 1.31 -14.38 1.81 -21.69 c 0.77 -0.64 1.54 -1.27 2.32 -1.91 c 4.41 1.33 8.67 2.91 13.2 3.81 c 3.81 0.86 7.81 1.33 11.53 2.54 c 1.47 0.4 1.98 1.54 2.88 2.63 c -5.94 2.88 -12.09 3.89 -17.56 7.83 c 7.04 -2.65 14.48 -4.85 21.07 -8.49 c -3.47 -1.91 -7.01 -3.42 -10.93 -4.14 c -7.21 -1.36 -14.2 -2.79 -21.16 -5.22 c -1.48 -1.75 0.55 -6.15 1.01 -8.34 c 1.16 -3.18 1.86 -6.2 2.02 -9.59 c 0.36 -6.43 2.15 -12.44 2.07 -18.89 c -0.07 -10.31 -0.2 -20.59 0.52 -30.88 c 0.44 -5.94 0.9 -11.81 1.71 -17.71 c 0.41 -3.15 0.43 -6.3 0.58 -9.47 c 0.26 -5.89 1.89 -11.2 2.76 -17.13 c 0.66 -4.58 1.57 -9.09 2.51 -13.62 c -0.71 0.4 -1.42 0.79 -2.13 1.19 c 0.1 -1.14 0.21 -2.29 0.31 -3.44 c 0.51 -1.9 1.01 -3.79 1.29 -5.75 c 0.28 -1.76 0.56 -3.53 0.84 -5.3 c 0.14 1.84 0.3 3.68 0.55 5.51 c 0.85 -1.63 1.12 -3.32 1.29 -5.13 c 0.99 -6.52 2.78 -13.71 5.44 -19.74 c 6.52 1.05 12.53 2.63 19.21 2.11 c 7.13 -0.34 13.49 -2.8 19.8 -5.93 c 6.27 -3.15 10.68 -8.15 17.46 -10.53 z m -5.42 49.03 c 2.6 -2.29 3.86 -4.32 4.97 -7.58 c -2.9 2.17 -3.98 4.11 -4.97 7.58 z m -54.81 75.54 c 0.65 0.09 1.29 0.19 1.93 0.28 c 1.56 -5.4 5.52 -8.05 8.96 -12.16 c 4.95 -5.73 9.9 -11.49 14.6 -17.42 c 5.91 -8.16 11.87 -16.27 17.15 -24.86 c 3.91 -6.35 9.15 -12.73 11.5 -19.8 c -4.39 5.16 -7.51 11.35 -11.43 16.89 c -10.71 17.22 -22.82 33.49 -36.75 48.26 c -2.43 2.78 -5.09 5.08 -5.96 8.81 z m 10.26 49.06 c 3.63 2.68 8.62 5.03 12.94 2.5 c -3.84 -0.63 -7.52 -0.74 -11.02 -2.67 c 0.88 -6.11 5.18 -9.16 8.72 -13.76 c 2.65 -3.43 6.02 -6.07 8.46 -9.66 c -5.82 2.84 -8.47 7.86 -12.85 12.26 c -3.15 3.31 -5.14 6.89 -6.25 11.33 z m -4.45 16.3 c 2.68 -0.61 5.08 -1.49 7.49 -2.8 c 6.13 -3.27 12.29 -6.45 18.51 -9.54 c 4.42 -2.2 8.3 -5.12 12.5 -7.66 c -4.56 10.98 -11.36 20.11 -19.13 29 c -3.46 3.76 -8.4 3.41 -11.19 7.96 c 4.82 -1.56 9.31 -3.49 12.61 -7.51 c 5 -5.93 10.45 -12.13 14.03 -19.02 c 3.07 -5.85 6.66 -11.01 8.72 -17.37 c -8.03 8.64 -18.41 13.14 -28.66 18.45 c -5.25 2.77 -10.36 4.55 -14.88 8.49 z" stroke-linecap="round"/>
</g>
		<g transform="matrix(1.899 0 0 1.899 158.0321 0.1451)" id="g436">
<path style="stroke: none; stroke-width: 1; stroke-dasharray: none; stroke-linecap: butt; stroke-dashoffset: 0; stroke-linejoin: miter; stroke-miterlimit: 4; is-custom-font: none; font-file-url: none; fill: rgb(149,144,124); fill-rule: nonzero; opacity: 1;" transform=" translate(-263.9615, -288.48)" d="m 266.86 253.63 c 0.34 4.48 0.39 8.95 0.13 13.43 c -1.78 6.66 -0.8 12.88 -1 19.94 c -0.19 7.88 0.45 15.88 -0.42 23.7 c -0.51 3.99 -0.4 7.97 -0.54 11.98 c -1.23 0.22 -2.47 0.43 -3.71 0.65 c -0.71 -6.23 -0.85 -12.49 0.27 -18.68 c 0.75 -4.76 -0.6 -8.79 -0.73 -13.61 c -0.25 -10.89 0.25 -21.73 0.36 -32.61 c 2.01 -1.42 3.83 -3.13 5.64 -4.8 z" stroke-linecap="round"/>
</g>
		<g transform="matrix(1.899 0 0 1.899 -216.8269 -59.6069)" id="g436">
<path style="stroke: none; stroke-width: 1; stroke-dasharray: none; stroke-linecap: butt; stroke-dashoffset: 0; stroke-linejoin: miter; stroke-miterlimit: 4; is-custom-font: none; font-file-url: none; fill: rgb(45,48,52); fill-rule: nonzero; opacity: 1;" transform=" translate(-66.565, -257.015)" d="m 68.12 255.02 c -0.44 2.03 -0.9 3.41 -3.11 3.99 c 0.15 -2.23 0.93 -3.34 3.11 -3.99 z" stroke-linecap="round"/>
</g>
		<g transform="matrix(1.899 0 0 1.899 138.2088 4.9401)" id="g436">
<path style="stroke: none; stroke-width: 1; stroke-dasharray: none; stroke-linecap: butt; stroke-dashoffset: 0; stroke-linejoin: miter; stroke-miterlimit: 4; is-custom-font: none; font-file-url: none; fill: rgb(2,1,1); fill-rule: nonzero; opacity: 1;" transform=" translate(-253.5228, -291.005)" d="m 261.22 258.43 c -0.11 10.88 -0.61 21.72 -0.36 32.61 c 0.13 4.82 1.48 8.85 0.73 13.61 c -1.12 6.19 -0.98 12.45 -0.27 18.68 l -1.33 0.25 c 0.4 -15.5 0.68 -31.2 -0.1 -46.69 c -3.52 -0.68 -6.98 -1.26 -10.14 0.91 c -2.54 2.84 -1.29 8.05 -1.25 11.55 c -3.42 -2.48 -2.92 -5.62 -3.27 -9.36 c 2.14 -4.99 2.12 -11.14 6.18 -14.61 c 3.1 -2.89 5.52 -5.89 9.81 -6.95 z" stroke-linecap="round"/>
</g>
		<g transform="matrix(1.899 0 0 1.899 -222.9986 -50.4441)" id="g436">
<path style="stroke: none; stroke-width: 1; stroke-dasharray: none; stroke-linecap: butt; stroke-dashoffset: 0; stroke-linejoin: miter; stroke-miterlimit: 4; is-custom-font: none; font-file-url: none; fill: rgb(57,65,67); fill-rule: nonzero; opacity: 1;" transform=" translate(-63.315, -261.84)" d="m 64.92 259.69 c -0.23 1.13 -0.46 2.26 -0.7 3.38 c -0.83 0.31 -1.67 0.61 -2.51 0.92 c 1.03 -1.47 2.14 -2.87 3.21 -4.3 z" stroke-linecap="round"/>
</g>
		<g transform="matrix(1.899 0 0 1.899 -124.5905 -18.7593)" id="g436">
<path style="stroke: none; stroke-width: 1; stroke-dasharray: none; stroke-linecap: butt; stroke-dashoffset: 0; stroke-linejoin: miter; stroke-miterlimit: 4; is-custom-font: none; font-file-url: none; fill: rgb(23,26,29); fill-rule: nonzero; opacity: 1;" transform=" translate(-115.1356, -278.525)" d="m 114.27 263.81 c 1.4 4.06 1.25 7.94 1.68 12.19 c 0.37 5.71 1.02 11.52 0.75 17.24 c -2.26 -2.43 -2.24 -6.12 -2.92 -9.31 c -0.9 -3.93 0.73 -7.24 0.56 -11.14 c -0.11 -3 -0.3 -5.98 -0.07 -8.98 z" stroke-linecap="round"/>
</g>
		<g transform="matrix(1.899 0 0 1.899 194.9186 96.3107)" id="g436">
<path style="stroke: none; stroke-width: 1; stroke-dasharray: none; stroke-linecap: butt; stroke-dashoffset: 0; stroke-linejoin: miter; stroke-miterlimit: 4; is-custom-font: none; font-file-url: none; fill: rgb(1,1,2); fill-rule: nonzero; opacity: 1;" transform=" translate(-283.3856, -339.12)" d="m 284.92 268.71 c 0.97 0.44 1.93 0.9 2.87 1.39 c -0.22 4.65 -0.82 9.26 -0.8 13.93 c 0.1 7.51 -2.35 14.44 -1.07 22.01 l 0.13 1.82 c 1.59 6.46 2.83 12.82 3.63 19.43 c 1.05 8.74 3.08 17.28 3.99 26.03 c 0.33 3.23 -0.26 6.33 -0.12 9.54 c 0.15 2.8 1.03 5.43 1.19 8.18 c 0.05 3.32 -1.55 6.18 -1.11 9.43 c 0.24 3.76 1.84 6.78 0.21 10.33 c -2.64 6.25 -4.47 12.84 -7.79 18.73 c -4.25 -7.45 -6.54 -15.44 -8.89 -23.57 c -0.78 -3.17 -2.42 -4.7 -5.13 -6.33 c 0.54 -5.93 1.11 -11.86 1.68 -17.78 c 0.31 -1.68 0.21 -3.46 1.61 -4.63 c 3.08 -2.73 6.97 -4.73 10.67 -6.49 c 1.87 1.85 3.78 3.63 5.9 5.19 c -0.71 -2.93 -2.84 -6.01 -5.96 -6.49 c -3.89 0.6 -7.49 3.71 -10.98 5.48 c -1.03 -6.64 0.2 -12.9 1.01 -19.45 c 0.12 -8.52 1.45 -16.91 1.67 -25.43 c 0.21 -6.79 1.33 -13.47 1.78 -20.24 c 0.32 -7.48 4.55 -13.59 5.51 -21.08 z" stroke-linecap="round"/>
</g>
		<g transform="matrix(1.899 0 0 1.899 0.886 -6.3302)" id="g436">
<path style="stroke: none; stroke-width: 1; stroke-dasharray: none; stroke-linecap: butt; stroke-dashoffset: 0; stroke-linejoin: miter; stroke-miterlimit: 4; is-custom-font: none; font-file-url: none; fill: rgb(40,36,33); fill-rule: nonzero; opacity: 1;" transform=" translate(-181.2101, -285.07)" d="m 179.17 276.72 c 2.14 3.57 3.37 7.5 4.13 11.57 c -0.17 1.81 -0.44 3.5 -1.29 5.13 c -0.25 -1.83 -0.41 -3.67 -0.55 -5.51 c -0.28 1.77 -0.56 3.54 -0.84 5.3 c -0.46 -5.56 -1.77 -10.86 -1.45 -16.49 z" stroke-linecap="round"/>
</g>
		<g transform="matrix(1.899 0 0 1.899 -179.2883 90.4905)" id="g436">
<path style="stroke: none; stroke-width: 1; stroke-dasharray: none; stroke-linecap: butt; stroke-dashoffset: 0; stroke-linejoin: miter; stroke-miterlimit: 4; is-custom-font: none; font-file-url: none; fill: rgb(1,3,5); fill-rule: nonzero; opacity: 1;" transform=" translate(-86.3326, -336.055)" d="m 109.23 288.1 c 1.33 4.38 2.08 8.9 3.59 13.24 c 0.76 -0.15 1.53 -0.3 2.29 -0.45 c -0.34 3.55 -1.06 6.99 -1.9 10.44 c -0.69 2.8 -0.2 5.49 -0.45 8.28 c -2.56 4.24 -8.19 6.65 -6.99 12.5 c 2.28 -0.53 4.26 -1.45 6.25 -2.65 c -2.55 2.66 -4.11 5.22 -5.4 8.66 c -2.21 1.15 -7.03 1.26 -7.84 3.76 c 2.77 4.48 6.9 7.26 10.83 10.61 c 0.04 0.47 0.07 0.94 0.1 1.41 c -0.86 0.39 -1.72 0.77 -2.59 1.16 c 1.58 3.44 2.77 5.05 6.59 6.03 c 0.06 -1.79 0.11 -3.58 0.15 -5.37 c 0.47 0.31 0.95 0.62 1.42 0.93 c 1.92 9.23 1.86 18.38 -1.23 27.36 c -3.17 -3.07 -5.59 -6.45 -5.77 -11.02 c 0.5 -1.69 1.39 -3.25 1.89 -4.93 c -0.4 -3.76 -2.26 -7.52 -3.79 -10.94 c -1.51 2.62 -3.07 5.2 -4.71 7.74 c -3.97 -0.94 -7.12 -2.73 -10.3 -5.24 c -2.85 -2.32 -6.15 -3.44 -9.51 -4.77 c -4.14 -1.63 -7.17 -4.73 -11.31 -6.3 c -2.53 -1.1 -4.98 -1.38 -6.95 -3.35 c 4.48 -2.05 9.28 -2.82 13.96 -0.95 c -0.73 1.53 -1.53 3.12 -2.01 4.73 c 1.79 3.9 8.19 5.05 11.78 6.87 c 4.91 1.76 8.54 6 13.52 7.32 c -0.19 -4.02 -0.7 -8.19 -1.98 -12.03 c -0.81 -2.44 -2.58 -4.4 -3.58 -6.7 c 0.49 -3.84 3 -5.25 5.47 -7.74 c 0.35 -2.5 -0.35 -5.25 -0.77 -7.71 c -9.54 0.03 -18.71 4.64 -28.19 1.96 c -5.87 -2.09 -10.95 -6.9 -15.71 -10.81 c 6.24 1.86 9.41 7.49 15.41 9.58 c 3.6 1.36 7.34 1.84 11.15 1.14 c 6.18 -1.19 12.12 -1.28 17.95 -3.9 c 0.74 0.91 1.48 1.81 2.22 2.72 c 2.83 -3.46 5.94 -6.74 8.55 -10.38 c 1.32 -1.76 1.07 -4.2 1.12 -6.3 c -0.22 -8.28 -2.43 -16.65 -3.26 -24.9 z" stroke-linecap="round"/>
</g>
		<g transform="matrix(1.899 0 0 1.899 116.8492 20.9588)" id="g436">
<path style="stroke: none; stroke-width: 1; stroke-dasharray: none; stroke-linecap: butt; stroke-dashoffset: 0; stroke-linejoin: miter; stroke-miterlimit: 4; is-custom-font: none; font-file-url: none; fill: rgb(159,140,126); fill-rule: nonzero; opacity: 1;" transform=" translate(-242.275, -299.44)" d="m 244.76 295.65 c -1.11 3.26 -2.37 5.29 -4.97 7.58 c 0.99 -3.47 2.07 -5.41 4.97 -7.58 z" stroke-linecap="round"/>
</g>
		<g transform="matrix(1.899 0 0 1.899 63.2105 233.6467)" id="g436">
<path style="stroke: none; stroke-width: 1; stroke-dasharray: none; stroke-linecap: butt; stroke-dashoffset: 0; stroke-linejoin: miter; stroke-miterlimit: 4; is-custom-font: none; font-file-url: none; fill: rgb(1,1,1); fill-rule: nonzero; opacity: 1;" transform=" translate(-214.03, -411.44)" d="m 250.96 295.88 c 3.38 1.78 3.4 4.66 3.31 8.08 c -1.19 11.16 0.85 22.41 -0.22 33.63 c -0.59 5.47 -0.38 10.92 -0.27 16.41 c 0.01 10.38 0.02 20.91 0.94 31.25 c 0.16 1.94 1.54 1.96 2.98 2.74 c -0.99 1.47 -2.51 3.19 -2.6 5 c -0.48 13.61 3.83 29.1 0.33 42.3 c -1.04 5.16 -1.23 10.41 -2.48 15.55 c -1.13 4.67 -1.95 9.35 -2.08 14.16 c -0.26 8.13 -1.03 16.89 0.43 24.88 c -0.98 1.67 -2.09 3.32 -2.86 5.1 c -0.45 7.06 -1.03 14.32 -0.19 21.37 l 0.68 -0.64 c 0.95 -0.89 1.9 -1.76 2.8 -2.69 c 0.67 -0.79 1.1 -1.78 1.3 -2.98 c 0.8 -2.75 1.63 -5.51 2.67 -8.18 c 1.7 -4.23 3.78 -7.77 6.94 -11.07 c 5.44 11.95 11.14 23.9 15.7 36.21 h -85.55 c -1.62 -2.18 -3.18 -4.17 -5.62 -5.49 c -0.57 1.82 -1.04 3.66 -1.58 5.49 h -35.87 c 1.26 -2.14 2.82 -4.47 3.44 -6.88 c 0.69 -2.67 0.6 -5.66 0.67 -8.41 c 0.93 -5.1 3.26 -9.71 3.95 -14.89 c 1.28 -5.69 0.16 -11.29 1.05 -16.99 c 1.33 -8.98 2.96 -17.92 4.34 -26.89 c 0.61 -7.29 0.99 -14.6 1.41 -21.89 c 0.53 -5.06 1.76 -10.01 2.12 -15.1 c 0.21 4.62 0.23 9.23 -0.08 13.84 c -0.5 7.31 -1.94 14.34 -1.81 21.69 c 1.87 -0.58 3.77 -1.59 5.73 -1.76 c 6.04 -0.21 11.34 -4.24 17.35 -5.65 c -3.8 1.8 -7.73 3.37 -11.61 4.98 c -3.78 1.57 -7.83 1.91 -11.69 3.3 c -1.04 6.33 -1.51 12.68 -1.41 19.1 c 5.37 0.01 10.87 -0.51 16.15 0.05 c -5.31 0.83 -11.66 -0.85 -16.6 1.19 c -1.37 2.92 -1.25 6.68 -1.59 9.87 c 4.22 0.14 8.42 0.2 12.64 0.06 c 2.91 -0.12 6.46 0.51 9.1 -0.82 c 8.66 -4.02 17.55 -7.38 25.92 -12.03 c 8.26 -4.64 17.44 -8.43 24.86 -14.11 c 3.18 -2.39 6.49 -4.56 9.74 -6.85 c 1.65 -1.14 3.42 -2.23 4.92 -3.57 c 1.2 -4.12 -0.6 -7.46 -3.43 -10.36 c 0.38 -6.41 -0.92 -12.45 -1.92 -18.71 c -0.08 -5.63 -0.67 -10.37 -3.33 -15.4 c 1.77 -6.49 2.55 -13.09 3.16 -19.77 c 1.65 -8.65 2.28 -17.32 4.39 -25.87 c 1.24 -5.19 2.87 -10.38 3.68 -15.65 c 0.69 -3.36 0.45 -6.7 0.69 -10.09 c 0.79 -7.42 -0.71 -14.71 0.62 -22.14 c 0.53 -2.84 -0.4 -4.49 -2.03 -6.72 c 0.3 -1.55 0.53 -3.1 0.81 -4.65 z m -75.72 188.32 l 0.01 0.55 l 0.55 -0.02 l -0.01 -0.54 z m 11 32.06 c 0.53 0.53 0.53 0.53 0 0 z" stroke-linecap="round"/>
</g>
		<g transform="matrix(1.899 0 0 1.899 -6.9947 63.0691)" id="g436">
<path style="stroke: none; stroke-width: 1; stroke-dasharray: none; stroke-linecap: butt; stroke-dashoffset: 0; stroke-linejoin: miter; stroke-miterlimit: 4; is-custom-font: none; font-file-url: none; fill: rgb(73,71,60); fill-rule: nonzero; opacity: 1;" transform=" translate(-177.0602, -321.615)" d="m 179.33 298.96 c -0.1 1.15 -0.21 2.3 -0.31 3.44 c 0.71 -0.4 1.42 -0.79 2.13 -1.19 c -0.94 4.53 -1.85 9.04 -2.51 13.62 c -0.87 5.93 -2.5 11.24 -2.76 17.13 c -0.15 3.17 -0.17 6.32 -0.58 9.47 l -0.51 -1.2 c -0.57 1.35 -1.13 2.7 -1.69 4.04 c -0.26 -4.91 -0.16 -9.81 0.59 -14.68 c 1.27 -7.73 2 -15.59 2.5 -23.41 c -0.68 0.31 -1.37 0.62 -2.05 0.93 c 0.87 -3.37 2.68 -5.82 5.19 -8.15 z" stroke-linecap="round"/>
</g>
		<g transform="matrix(1.899 0 0 1.899 99.8614 116.9249)" id="g436">
<path style="stroke: none; stroke-width: 1; stroke-dasharray: none; stroke-linecap: butt; stroke-dashoffset: 0; stroke-linejoin: miter; stroke-miterlimit: 4; is-custom-font: none; font-file-url: none; fill: rgb(136,122,119); fill-rule: nonzero; opacity: 1;" transform=" translate(-233.3296, -349.975)" d="m 250.15 300.53 c 1.63 2.23 2.56 3.88 2.03 6.72 c -1.33 7.43 0.17 14.72 -0.62 22.14 c -0.24 3.39 0 6.73 -0.69 10.09 c -0.58 -2.49 -0.96 -4.9 -0.76 -7.47 c 0.33 -6.19 -0.42 -12.41 -2.1 -18.37 c -1.52 2.48 -2.72 4.99 -3.63 7.76 c -2.87 8.64 -6.38 17.05 -9.3 25.68 c -4.19 12.22 -9.03 24.19 -13.77 36.2 c -1.76 4.39 -2.69 9.07 -4.49 13.42 c -0.46 1.31 -1.46 1.91 -2.49 2.72 c 3.52 -11.75 8.01 -23.07 12.61 -34.43 c 3.46 -8.45 6.15 -17.14 9.34 -25.68 c 4.87 -12.83 9.57 -25.75 13.87 -38.78 z" stroke-linecap="round"/>
</g>
		<g transform="matrix(1.899 0 0 1.899 59.451 101.6475)" id="g436">
<path style="stroke: none; stroke-width: 1; stroke-dasharray: none; stroke-linecap: butt; stroke-dashoffset: 0; stroke-linejoin: miter; stroke-miterlimit: 4; is-custom-font: none; font-file-url: none; fill: rgb(141,123,112); fill-rule: nonzero; opacity: 1;" transform=" translate(-212.05, -341.93)" d="m 239.12 304.81 c -2.35 7.07 -7.59 13.45 -11.5 19.8 c -5.28 8.59 -11.24 16.7 -17.15 24.86 c -4.7 5.93 -9.65 11.69 -14.6 17.42 c -3.44 4.11 -7.4 6.76 -8.96 12.16 c -0.64 -0.09 -1.28 -0.19 -1.93 -0.28 c 0.87 -3.73 3.53 -6.03 5.96 -8.81 c 13.93 -14.77 26.04 -31.04 36.75 -48.26 c 3.92 -5.54 7.04 -11.73 11.43 -16.89 z" stroke-linecap="round"/>
</g>
		<g transform="matrix(1.899 0 0 1.899 200.9941 35.2204)" id="g436">
<path style="stroke: none; stroke-width: 1; stroke-dasharray: none; stroke-linecap: butt; stroke-dashoffset: 0; stroke-linejoin: miter; stroke-miterlimit: 4; is-custom-font: none; font-file-url: none; fill: rgb(126,125,130); fill-rule: nonzero; opacity: 1;" transform=" translate(-286.5848, -306.95)" d="m 285.92 306.04 c 1.73 0.68 1.77 1.29 0.13 1.82 z" stroke-linecap="round"/>
</g>
		<g transform="matrix(1.899 0 0 1.899 -24.6845 75.4225)" id="g436">
<path style="stroke: none; stroke-width: 1; stroke-dasharray: none; stroke-linecap: butt; stroke-dashoffset: 0; stroke-linejoin: miter; stroke-miterlimit: 4; is-custom-font: none; font-file-url: none; fill: rgb(124,126,121); fill-rule: nonzero; opacity: 1;" transform=" translate(-167.745, -328.12)" d="m 169 323.86 c -0.31 2.85 -0.71 5.69 -1.08 8.52 l -1.3 -0.3 c 0.08 -2.32 0.04 -4.64 -0.13 -6.96 c 0.83 -0.42 1.67 -0.84 2.51 -1.26 z" stroke-linecap="round"/>
</g>
		<g transform="matrix(1.899 0 0 1.899 -197.9888 89.4044)" id="g436">
<path style="stroke: none; stroke-width: 1; stroke-dasharray: none; stroke-linecap: butt; stroke-dashoffset: 0; stroke-linejoin: miter; stroke-miterlimit: 4; is-custom-font: none; font-file-url: none; fill: rgb(39,40,44); fill-rule: nonzero; opacity: 1;" transform=" translate(-76.485, -335.4827)" d="m 64.06 332.7 c 10.16 0.93 20.65 3.89 30.68 2.66 c 0.46 0.96 0.92 1.93 1.38 2.9 c -6.32 0.12 -12.66 -1.68 -18.94 -2.4 c -7.13 -1.42 -13.19 -1.71 -20.33 -0.25 c 2.17 -1.09 4.73 -2.94 7.21 -2.91 z" stroke-linecap="round"/>
</g>
		<g transform="matrix(1.899 0 0 1.899 -227.7369 107.1168)" id="g436">
<path style="stroke: none; stroke-width: 1; stroke-dasharray: none; stroke-linecap: butt; stroke-dashoffset: 0; stroke-linejoin: miter; stroke-miterlimit: 4; is-custom-font: none; font-file-url: none; fill: rgb(0,3,5); fill-rule: nonzero; opacity: 1;" transform=" translate(-60.82, -344.8099)" d="m 56.53 338.38 c 8 0.47 14.23 -1.63 21.38 1.11 c -8.37 2.06 -16.49 2.36 -24.51 5.73 c -3.72 1.57 -6.38 4.08 -9.67 6.35 c 2.89 -6.28 8.9 -6.27 14.42 -9.32 c -0.55 -1.28 -1.13 -2.56 -1.62 -3.87 z" stroke-linecap="round"/>
</g>
		<g transform="matrix(1.899 0 0 1.899 -53.3531 199.1997)" id="g436">
<path style="stroke: none; stroke-width: 1; stroke-dasharray: none; stroke-linecap: butt; stroke-dashoffset: 0; stroke-linejoin: miter; stroke-miterlimit: 4; is-custom-font: none; font-file-url: none; fill: rgb(3,7,9); fill-rule: nonzero; opacity: 1;" transform=" translate(-152.6485, -393.3)" d="m 151.33 347.01 c 0.71 1.99 0.46 3.88 0.45 5.96 c -0.16 5.35 0.06 10.68 0.03 16.03 c 0.03 6.8 -0.3 13.38 0.29 20.15 c 5.73 -6.76 4.37 -15.98 5.51 -24.24 c 0.41 6.57 -0.74 13.11 -1.17 19.81 c -1.06 9.03 -2.09 18.07 -3.04 27.12 c -0.88 9.26 -0.67 18.49 -0.81 27.75 c -1.09 -4.98 -0.46 -10.48 -0.41 -15.56 c 0.33 -6.38 -0.66 -12.62 -0.71 -18.98 c -0.13 -2.52 0 -5.3 -0.78 -7.72 c -0.92 -1.05 -2.03 -1.98 -3.09 -2.91 c 1.18 -1.4 2.69 -2.82 3.37 -4.53 c 0.64 -4.21 0.17 -8.63 0.24 -12.89 c 0.03 -9.99 -0.06 -20.01 0.12 -29.99 z" stroke-linecap="round"/>
</g>
		<g transform="matrix(1.899 0 0 1.899 -19.0617 182.0518)" id="g436">
<path style="stroke: none; stroke-width: 1; stroke-dasharray: none; stroke-linecap: butt; stroke-dashoffset: 0; stroke-linejoin: miter; stroke-miterlimit: 4; is-custom-font: none; font-file-url: none; fill: rgb(143,135,125); fill-rule: nonzero; opacity: 1;" transform=" translate(-170.7059, -384.27)" d="m 172.31 350.04 l 0.66 0.4 c 0.26 2.89 0.32 5.8 0.62 8.7 c -0.72 10.29 -0.59 20.57 -0.52 30.88 c 0.08 6.45 -1.71 12.46 -2.07 18.89 c -0.16 3.39 -0.86 6.41 -2.02 9.59 c -1.15 -3.24 -1.26 -6.46 -1.1 -9.85 c 2.21 -7.1 2.01 -13.83 2.77 -21.17 c 0.66 -6.67 0.57 -13.33 0.33 -20.02 c 0.16 -5.84 0.53 -11.64 1.33 -17.42 z" stroke-linecap="round"/>
</g>
		<g transform="matrix(1.899 0 0 1.899 -22.2768 189.2398)" id="g436">
<path style="stroke: none; stroke-width: 1; stroke-dasharray: none; stroke-linecap: butt; stroke-dashoffset: 0; stroke-linejoin: miter; stroke-miterlimit: 4; is-custom-font: none; font-file-url: none; fill: rgb(46,45,45); fill-rule: nonzero; opacity: 1;" transform=" translate(-169.0128, -388.055)" d="m 170.98 367.46 c 0.24 6.69 0.33 13.35 -0.33 20.02 c -0.76 7.34 -0.56 14.07 -2.77 21.17 c -2.32 -5.48 0.1 -9.88 -0.11 -15.62 c -0.11 -7.36 0.35 -14.69 1.15 -22.01 c 0.03 -1.74 0.93 -2.41 2.06 -3.56 z" stroke-linecap="round"/>
</g>
		<g transform="matrix(1.899 0 0 1.899 -120.7959 190.0944)" id="g436">
<path style="stroke: none; stroke-width: 1; stroke-dasharray: none; stroke-linecap: butt; stroke-dashoffset: 0; stroke-linejoin: miter; stroke-miterlimit: 4; is-custom-font: none; font-file-url: none; fill: rgb(0,3,5); fill-rule: nonzero; opacity: 1;" transform=" translate(-117.1338, -388.505)" d="m 118.03 374.75 c 1.39 0.81 3.32 1.83 3.92 3.43 c -0.62 8.79 -5.01 16.68 -9.44 24.08 c -0.93 -4.67 1.79 -7.73 2.23 -12.25 c 0.61 -5.34 0.74 -10.36 3.29 -15.26 z" stroke-linecap="round"/>
</g>
		<g transform="matrix(1.899 0 0 1.899 177.2629 196.3138)" id="g436">
<path style="stroke: none; stroke-width: 1; stroke-dasharray: none; stroke-linecap: butt; stroke-dashoffset: 0; stroke-linejoin: miter; stroke-miterlimit: 4; is-custom-font: none; font-file-url: none; fill: rgb(46,48,50); fill-rule: nonzero; opacity: 1;" transform=" translate(-274.0882, -391.78)" d="m 272.03 379.63 c 2.71 1.63 4.35 3.16 5.13 6.33 c 0.07 0.8 0.14 1.6 0.19 2.39 c -0.92 -0.17 -1.84 -0.33 -2.76 -0.5 l 0.32 1.19 c -0.48 -1 -0.98 -1.99 -1.49 -2.97 c -0.92 5.94 -1.01 11.77 -0.62 17.75 l -1.63 0.11 c -0.62 -8.12 -0.44 -16.26 0.86 -24.3 z" stroke-linecap="round"/>
</g>
		<g transform="matrix(1.899 0 0 1.899 189.0972 222.2922)" id="g436">
<path style="stroke: none; stroke-width: 1; stroke-dasharray: none; stroke-linecap: butt; stroke-dashoffset: 0; stroke-linejoin: miter; stroke-miterlimit: 4; is-custom-font: none; font-file-url: none; fill: rgb(10,12,16); fill-rule: nonzero; opacity: 1;" transform=" translate(-280.32, -405.46)" d="m 277.16 385.96 c 2.35 8.13 4.64 16.12 8.89 23.57 c -2.05 3.61 -1.68 7.23 -2.01 11.21 c -0.48 1.39 -0.93 2.78 -1.25 4.22 l -0.92 -1.46 c -1.01 -11.76 -3.14 -23.26 -6.96 -34.46 l -0.32 -1.19 c 0.92 0.17 1.84 0.33 2.76 0.5 c -0.05 -0.79 -0.12 -1.59 -0.19 -2.39 z" stroke-linecap="round"/>
</g>
		<g transform="matrix(1.899 0 0 1.899 148.3757 222.3398)" id="g436">
<path style="stroke: none; stroke-width: 1; stroke-dasharray: none; stroke-linecap: butt; stroke-dashoffset: 0; stroke-linejoin: miter; stroke-miterlimit: 4; is-custom-font: none; font-file-url: none; fill: rgb(37,42,45); fill-rule: nonzero; opacity: 1;" transform=" translate(-258.8765, -405.485)" d="m 257.09 391.75 c 1.57 3.33 2.28 6.83 2.59 10.48 c 0.49 5.61 1.16 11.36 0.94 16.99 c -1.79 -3.63 -1.58 -7.32 -1.77 -11.26 c -0.16 -5.47 -1.7 -10.72 -1.76 -16.21 z" stroke-linecap="round"/>
</g>
		<g transform="matrix(1.899 0 0 1.899 110.7343 228.0084)" id="g436">
<path style="stroke: none; stroke-width: 1; stroke-dasharray: none; stroke-linecap: butt; stroke-dashoffset: 0; stroke-linejoin: miter; stroke-miterlimit: 4; is-custom-font: none; font-file-url: none; fill: rgb(138,124,118); fill-rule: nonzero; opacity: 1;" transform=" translate(-239.055, -408.47)" d="m 239.64 400.77 c 2.66 5.03 3.25 9.77 3.33 15.4 c -0.87 -3 -1.49 -4.84 -4.51 -6.17 c -1.1 1.4 -2.19 2.79 -3.32 4.16 c 1.18 -4.61 2.67 -9 4.5 -13.39 z" stroke-linecap="round"/>
</g>
		<g transform="matrix(1.899 0 0 1.899 45.6644 245.7758)" id="g436">
<path style="stroke: none; stroke-width: 1; stroke-dasharray: none; stroke-linecap: butt; stroke-dashoffset: 0; stroke-linejoin: miter; stroke-miterlimit: 4; is-custom-font: none; font-file-url: none; fill: rgb(145,126,116); fill-rule: nonzero; opacity: 1;" transform=" translate(-204.79, -417.8261)" d="m 214.34 404.24 c -2.44 3.59 -5.81 6.23 -8.46 9.66 c -3.54 4.6 -7.84 7.65 -8.72 13.76 c 3.5 1.93 7.18 2.04 11.02 2.67 c -4.32 2.53 -9.31 0.18 -12.94 -2.5 c 1.11 -4.44 3.1 -8.02 6.25 -11.33 c 4.38 -4.4 7.03 -9.42 12.85 -12.26 z" stroke-linecap="round"/>
</g>
		<g transform="matrix(1.899 0 0 1.899 170.6296 263.3584)" id="g436">
<path style="stroke: none; stroke-width: 1; stroke-dasharray: none; stroke-linecap: butt; stroke-dashoffset: 0; stroke-linejoin: miter; stroke-miterlimit: 4; is-custom-font: none; font-file-url: none; fill: rgb(34,39,42); fill-rule: nonzero; opacity: 1;" transform=" translate(-270.5952, -427.085)" d="m 272.19 407.95 c 1.63 2.69 0.82 7.02 0.89 10.08 c -0.83 9.22 -1.1 19.77 -5.11 28.19 c 0.09 -6.31 2.78 -11.94 3.16 -18.2 c 0.67 -6.67 0.44 -13.4 1.06 -20.07 z" stroke-linecap="round"/>
</g>
		<g transform="matrix(1.899 0 0 1.899 60.4196 286.2509)" id="g436">
<path style="stroke: none; stroke-width: 1; stroke-dasharray: none; stroke-linecap: butt; stroke-dashoffset: 0; stroke-linejoin: miter; stroke-miterlimit: 4; is-custom-font: none; font-file-url: none; fill: rgb(144,127,116); fill-rule: nonzero; opacity: 1;" transform=" translate(-212.56, -439.14)" d="m 234.33 417.19 c -2.06 6.36 -5.65 11.52 -8.72 17.37 c -3.58 6.89 -9.03 13.09 -14.03 19.02 c -3.3 4.02 -7.79 5.95 -12.61 7.51 c 2.79 -4.55 7.73 -4.2 11.19 -7.96 c 7.77 -8.89 14.57 -18.02 19.13 -29 c -4.2 2.54 -8.08 5.46 -12.5 7.66 c -6.22 3.09 -12.38 6.27 -18.51 9.54 c -2.41 1.31 -4.81 2.19 -7.49 2.8 c 4.52 -3.94 9.63 -5.72 14.88 -8.49 c 10.25 -5.31 20.63 -9.81 28.66 -18.45 z" stroke-linecap="round"/>
</g>
		<g transform="matrix(1.899 0 0 1.899 -178.4801 316.8249)" id="g436">
<path style="stroke: none; stroke-width: 1; stroke-dasharray: none; stroke-linecap: butt; stroke-dashoffset: 0; stroke-linejoin: miter; stroke-miterlimit: 4; is-custom-font: none; font-file-url: none; fill: rgb(51,54,56); fill-rule: nonzero; opacity: 1;" transform=" translate(-86.7581, -455.24)" d="m 69.52 418.99 c 2.62 3.74 2 9.63 4.06 13.48 c 3.25 4.77 8.51 7.05 13.52 9.41 c 3.19 1.38 5.06 3.86 7.28 6.38 c 0.92 -0.09 1.84 -0.18 2.76 -0.27 c 1.44 3.69 3.08 7.31 4.73 10.91 c 1.23 -1.8 2.51 -3.56 3.87 -5.27 c 0.32 3.77 -0.41 7.23 -1.41 10.83 c -1.25 -1.74 -2.46 -3.51 -3.67 -5.27 c 0.28 4.47 -1.84 7.37 -4.16 10.93 c -4.3 -6.13 -5.05 -12.78 -6.94 -19.8 c -0.7 -2.32 -1.31 -4.87 -3.63 -6.11 c -3.86 -2.1 -7.96 -3.66 -11.73 -5.96 c 3.22 7.9 4.85 15.58 10.05 22.59 c 6.91 9.28 11.49 20.15 19.3 28.43 c -0.15 0.92 -0.31 1.83 -0.47 2.75 c -6.57 -4.81 -7.99 -11.86 -13.04 -17.78 l -0.19 1.82 c -0.5 -1.34 -1.07 -2.65 -1.63 -3.97 c -0.13 1.32 -0.24 2.63 -0.33 3.95 c -1.46 -3.39 -3.18 -6.68 -4.91 -9.95 c 0.39 -0.99 0.11 -1.73 -0.84 -2.23 c -1.19 -2.71 -2.51 -5.34 -4.03 -7.88 c 0.36 -0.99 0.08 -1.74 -0.86 -2.24 c -2.23 -6.22 -5.1 -11.79 -6.61 -18.32 c -1.32 -5.58 -2.26 -11.27 -2.94 -16.96 c 0.63 0.13 1.24 0.3 1.82 0.53 z" stroke-linecap="round"/>
</g>
		<g transform="matrix(1.899 0 0 1.899 -148.3544 296.4201)" id="g436">
<path style="stroke: none; stroke-width: 1; stroke-dasharray: none; stroke-linecap: butt; stroke-dashoffset: 0; stroke-linejoin: miter; stroke-miterlimit: 4; is-custom-font: none; font-file-url: none; fill: rgb(1,3,3); fill-rule: nonzero; opacity: 1;" transform=" translate(-102.6218, -444.495)" d="m 107.91 419.02 c -0.87 8.52 -3.16 17.9 -1.9 26.4 c 1.63 -2.53 2.18 -5.32 2.8 -8.2 c 0.69 11.05 -2.59 21.65 -2.39 32.75 c -0.79 -1.31 -1.58 -2.62 -2.39 -3.93 l 0.3 -1.58 c 1 -3.6 1.73 -7.06 1.41 -10.83 c -1.36 1.71 -2.64 3.47 -3.87 5.27 c -1.65 -3.6 -3.29 -7.22 -4.73 -10.91 c -0.95 -3.58 -1.24 -7.1 0.16 -10.61 c 2.47 -6.6 6.28 -12.82 10.61 -18.36 z m -2.15 27.52 c -1.29 1.3 -1.4 4.27 -0.51 5.78 c 1.63 -0.21 1.07 -4.67 0.51 -5.78 z" stroke-linecap="round"/>
</g>
		<g transform="matrix(1.899 0 0 1.899 196.6391 255.3163)" id="g436">
<path style="stroke: none; stroke-width: 1; stroke-dasharray: none; stroke-linecap: butt; stroke-dashoffset: 0; stroke-linejoin: miter; stroke-miterlimit: 4; is-custom-font: none; font-file-url: none; fill: rgb(10,12,16); fill-rule: nonzero; opacity: 1;" transform=" translate(-284.2915, -422.85)" d="m 284.04 420.74 c 0.98 0.56 2.34 1.51 1.48 2.76 c -0.74 0.68 -1.65 1.17 -2.73 1.46 c 0.32 -1.44 0.77 -2.83 1.25 -4.22 z" stroke-linecap="round"/>
</g>
		<g transform="matrix(1.899 0 0 1.899 180.8993 294.4168)" id="g436">
<path style="stroke: none; stroke-width: 1; stroke-dasharray: none; stroke-linecap: butt; stroke-dashoffset: 0; stroke-linejoin: miter; stroke-miterlimit: 4; is-custom-font: none; font-file-url: none; fill: rgb(38,40,44); fill-rule: nonzero; opacity: 1;" transform=" translate(-276.0031, -443.44)" d="m 281.87 423.5 l 0.92 1.46 c -3.45 12.98 -9 25.44 -12.46 38.42 c -1.48 -5 -1.48 -8.3 -0.03 -13.27 c 0.51 1.3 1.01 2.59 1.51 3.89 c 0.3 -1.87 0.61 -3.74 0.92 -5.6 c -0.5 -0.51 -0.99 -1.01 -1.48 -1.51 c 1.74 -4.33 4.47 -8.09 6.13 -12.46 c 1.41 -3.69 2.73 -7.39 4.49 -10.93 z" stroke-linecap="round"/>
</g>
		<g transform="matrix(1.899 0 0 1.899 70.444 317.4898)" id="g436">
<path style="stroke: none; stroke-width: 1; stroke-dasharray: none; stroke-linecap: butt; stroke-dashoffset: 0; stroke-linejoin: miter; stroke-miterlimit: 4; is-custom-font: none; font-file-url: none; fill: rgb(141,122,120); fill-rule: nonzero; opacity: 1;" transform=" translate(-217.8388, -455.59)" d="m 244.89 434.88 c 2.83 2.9 4.63 6.24 3.43 10.36 c -1.5 1.34 -3.27 2.43 -4.92 3.57 c -0.98 -1.14 -1.99 -2.27 -3.01 -3.38 c -5.54 3.54 -11.42 6.43 -16.86 10.12 c -8.88 6.15 -18.4 11.67 -28.51 15.51 c -3.18 1.13 -4.94 3.95 -8.04 5.24 c 1.39 -5.82 6.76 -5.85 11.33 -8.07 c 8.44 -3.9 16.62 -8.35 24.24 -13.7 c 8.58 -5.79 18.04 -9.44 22.34 -19.65 z" stroke-linecap="round"/>
</g>
		<g transform="matrix(1.899 0 0 1.899 -142.8912 305.7921)" id="g436">
<path style="stroke: none; stroke-width: 1; stroke-dasharray: none; stroke-linecap: butt; stroke-dashoffset: 0; stroke-linejoin: miter; stroke-miterlimit: 4; is-custom-font: none; font-file-url: none; fill: rgb(58,62,63); fill-rule: nonzero; opacity: 1;" transform=" translate(-105.4986, -449.43)" d="m 105.76 446.54 c 0.56 1.11 1.12 5.57 -0.51 5.78 c -0.89 -1.51 -0.78 -4.48 0.51 -5.78 z" stroke-linecap="round"/>
</g>
		<g transform="matrix(1.899 0 0 1.899 -195.7527 316.1038)" id="g436">
<path style="stroke: none; stroke-width: 1; stroke-dasharray: none; stroke-linecap: butt; stroke-dashoffset: 0; stroke-linejoin: miter; stroke-miterlimit: 4; is-custom-font: none; font-file-url: none; fill: rgb(51,54,56); fill-rule: nonzero; opacity: 1;" transform=" translate(-77.6624, -454.86)" d="m 77.25 453.74 c 0.94 0.5 1.22 1.25 0.86 2.24 c -0.99 -0.47 -1.28 -1.21 -0.86 -2.24 z" stroke-linecap="round"/>
</g>
		<g transform="matrix(1.899 0 0 1.899 -62.285 331.5711)" id="g436">
<path style="stroke: none; stroke-width: 1; stroke-dasharray: none; stroke-linecap: butt; stroke-dashoffset: 0; stroke-linejoin: miter; stroke-miterlimit: 4; is-custom-font: none; font-file-url: none; fill: rgb(35,38,41); fill-rule: nonzero; opacity: 1;" transform=" translate(-147.945, -463.005)" d="m 151.04 455.85 c -0.8 5.33 -2.64 10.2 -6.19 14.31 c 1.31 -5.07 3.46 -9.84 6.19 -14.31 z" stroke-linecap="round"/>
</g>
		<g transform="matrix(1.899 0 0 1.899 -152.5452 346.8203)" id="g436">
<path style="stroke: none; stroke-width: 1; stroke-dasharray: none; stroke-linecap: butt; stroke-dashoffset: 0; stroke-linejoin: miter; stroke-miterlimit: 4; is-custom-font: none; font-file-url: none; fill: rgb(1,4,8); fill-rule: nonzero; opacity: 1;" transform=" translate(-100.415, -471.035)" d="m 100.66 459.19 c 1.21 1.76 2.42 3.53 3.67 5.27 l -0.3 1.58 c -0.73 5.69 -0.39 11.14 -0.28 16.84 c -2.39 -4.28 -4.6 -8.62 -7.25 -12.76 c 2.32 -3.56 4.44 -6.46 4.16 -10.93 z" stroke-linecap="round"/>
</g>
		<g transform="matrix(1.899 0 0 1.899 -186.4639 335.3124)" id="g436">
<path style="stroke: none; stroke-width: 1; stroke-dasharray: none; stroke-linecap: butt; stroke-dashoffset: 0; stroke-linejoin: miter; stroke-miterlimit: 4; is-custom-font: none; font-file-url: none; fill: rgb(51,54,56); fill-rule: nonzero; opacity: 1;" transform=" translate(-82.5538, -464.975)" d="m 82.14 463.86 c 0.95 0.5 1.23 1.24 0.84 2.23 c -0.97 -0.48 -1.25 -1.22 -0.84 -2.23 z" stroke-linecap="round"/>
</g>
		<g transform="matrix(1.899 0 0 1.899 -165.7339 400.9609)" id="g436">
<path style="stroke: none; stroke-width: 1; stroke-dasharray: none; stroke-linecap: butt; stroke-dashoffset: 0; stroke-linejoin: miter; stroke-miterlimit: 4; is-custom-font: none; font-file-url: none; fill: rgb(15,16,19); fill-rule: nonzero; opacity: 1;" transform=" translate(-93.47, -499.545)" d="m 88.22 472.09 c 0.56 1.32 1.13 2.63 1.63 3.97 c 1.36 5.74 4.89 10.06 7.28 15.28 l -1 0.72 c -0.71 0.43 -1.41 0.85 -2.12 1.28 c -0.3 9.55 2.02 19.32 3.89 28.64 c -0.23 1.06 0.15 1.76 1.15 2.11 c -0.07 0.97 -0.14 1.94 -0.21 2.91 h -2.71 c -2.46 -11.76 -5.04 -24.02 -5.24 -36.04 c -0.24 -5.15 -1.52 -10.01 -3 -14.92 c 0.09 -1.32 0.2 -2.63 0.33 -3.95 z" stroke-linecap="round"/>
</g>
		<g transform="matrix(1.899 0 0 1.899 -9.9196 372.3336)" id="g436">
<path style="stroke: none; stroke-width: 1; stroke-dasharray: none; stroke-linecap: butt; stroke-dashoffset: 0; stroke-linejoin: miter; stroke-miterlimit: 4; is-custom-font: none; font-file-url: none; fill: rgb(175,177,172); fill-rule: nonzero; opacity: 1;" transform=" translate(-175.52, -484.47)" d="m 175.24 484.2 l 0.55 -0.01 l 0.01 0.54 l -0.55 0.02 z" stroke-linecap="round"/>
</g>
		<g transform="matrix(1.899 0 0 1.899 -115.7994 393.8168)" id="g436">
<path style="stroke: none; stroke-width: 1; stroke-dasharray: none; stroke-linecap: butt; stroke-dashoffset: 0; stroke-linejoin: miter; stroke-miterlimit: 4; is-custom-font: none; font-file-url: none; fill: rgb(1,4,7); fill-rule: nonzero; opacity: 1;" transform=" translate(-119.765, -495.7828)" d="m 135.89 488.12 c -0.68 2.27 -1.5 4.5 -2.13 6.79 c -1.06 2.52 1.19 5.57 1.98 7.99 c -1.23 0.31 -2.28 0.77 -3.57 0.42 c -3.43 -0.68 -5.57 -4.36 -8.38 -6.26 c -3.28 -0.6 -6.78 -0.28 -10.09 -1.05 c -3.64 -0.85 -6.88 -2.58 -10.06 -4.48 c 3.18 1.07 6.22 2.48 9.37 3.62 c 3.88 1.43 7.67 0.83 11.56 1.55 c 1.99 1.05 3.69 2.71 5.46 4.08 c 2.41 -4.04 3.67 -8.52 5.86 -12.66 z" stroke-linecap="round"/>
</g>
		<g transform="matrix(1.899 0 0 1.899 135.45 407.1329)" id="g436">
<path style="stroke: none; stroke-width: 1; stroke-dasharray: none; stroke-linecap: butt; stroke-dashoffset: 0; stroke-linejoin: miter; stroke-miterlimit: 4; is-custom-font: none; font-file-url: none; fill: rgb(36,37,33); fill-rule: nonzero; opacity: 1;" transform=" translate(-252.07, -502.795)" d="m 251.3 489.88 c 0.79 4.71 0.17 9.22 -0.34 13.91 c 1.58 -0.64 3.16 -1.29 4.74 -1.93 c -1.04 2.67 -1.87 5.43 -2.67 8.18 c -0.95 0.04 -2.3 0.03 -3 0.75 c -0.46 1.02 0.97 1.82 1.7 2.23 c -0.9 0.93 -1.85 1.8 -2.8 2.69 c 0.59 -6.83 -0.2 -14.09 -0.49 -20.73 c 0.77 -1.78 1.88 -3.43 2.86 -5.1 z" stroke-linecap="round"/>
</g>
		<g transform="matrix(1.899 0 0 1.899 128.638 412.5831)" id="g436">
<path style="stroke: none; stroke-width: 1; stroke-dasharray: none; stroke-linecap: butt; stroke-dashoffset: 0; stroke-linejoin: miter; stroke-miterlimit: 4; is-custom-font: none; font-file-url: none; fill: rgb(107,108,103); fill-rule: nonzero; opacity: 1;" transform=" translate(-248.4828, -505.665)" d="m 248.44 494.98 c 0.29 6.64 1.08 13.9 0.49 20.73 l -0.68 0.64 c -0.84 -7.05 -0.26 -14.31 0.19 -21.37 z" stroke-linecap="round"/>
</g>
		<g transform="matrix(1.899 0 0 1.899 -146.5063 406.3925)" id="g436">
<path style="stroke: none; stroke-width: 1; stroke-dasharray: none; stroke-linecap: butt; stroke-dashoffset: 0; stroke-linejoin: miter; stroke-miterlimit: 4; is-custom-font: none; font-file-url: none; fill: rgb(202,203,205); fill-rule: nonzero; opacity: 1;" transform=" translate(-103.595, -502.405)" d="m 103.42 502.18 l 0.35 0.45 z" stroke-linecap="round"/>
</g>
		<g transform="matrix(1.899 0 0 1.899 -70.2989 414.6531)" id="g436">
<path style="stroke: none; stroke-width: 1; stroke-dasharray: none; stroke-linecap: butt; stroke-dashoffset: 0; stroke-linejoin: miter; stroke-miterlimit: 4; is-custom-font: none; font-file-url: none; fill: rgb(39,44,47); fill-rule: nonzero; opacity: 1;" transform=" translate(-143.725, -506.755)" d="m 136.83 502.98 c 3.78 0.98 7.1 2.8 10.58 4.49 c 1.06 -1.26 2.12 -2.53 3.21 -3.77 c -0.19 2.39 -0.61 4.57 -1.44 6.83 c -4.42 -2 -8.6 -4.45 -12.35 -7.55 z" stroke-linecap="round"/>
</g>
		<g transform="matrix(1.899 0 0 1.899 -100.0134 437.4603)" id="g436">
<path style="stroke: none; stroke-width: 1; stroke-dasharray: none; stroke-linecap: butt; stroke-dashoffset: 0; stroke-linejoin: miter; stroke-miterlimit: 4; is-custom-font: none; font-file-url: none; fill: rgb(1,1,1); fill-rule: nonzero; opacity: 1;" transform=" translate(-128.0778, -518.765)" d="m 114.57 510.72 l 0.34 0.05 c 7.6 2.82 15.33 5.51 22.59 9.13 c 1.47 2.9 4.85 4.3 6.66 7.1 h -31.7 c -0.45 -5.49 -0.7 -10.97 -0.15 -16.47 c 0.76 0.05 1.51 0.12 2.26 0.19 z" stroke-linecap="round"/>
</g>
		<g transform="matrix(1.899 0 0 1.899 134.3397 423.721)" id="g436">
<path style="stroke: none; stroke-width: 1; stroke-dasharray: none; stroke-linecap: butt; stroke-dashoffset: 0; stroke-linejoin: miter; stroke-miterlimit: 4; is-custom-font: none; font-file-url: none; fill: rgb(107,107,104); fill-rule: nonzero; opacity: 1;" transform=" translate(-251.4853, -511.53)" d="m 250.03 510.79 c 0.7 -0.72 2.05 -0.71 3 -0.75 c -0.2 1.2 -0.63 2.19 -1.3 2.98 c -0.73 -0.41 -2.16 -1.21 -1.7 -2.23 z" stroke-linecap="round"/>
</g>
		<g transform="matrix(1.899 0 0 1.899 -66.6148 438.5807)" id="g436">
<path style="stroke: none; stroke-width: 1; stroke-dasharray: none; stroke-linecap: butt; stroke-dashoffset: 0; stroke-linejoin: miter; stroke-miterlimit: 4; is-custom-font: none; font-file-url: none; fill: rgb(25,26,24); fill-rule: nonzero; opacity: 1;" transform=" translate(-145.665, -519.355)" d="m 153.83 511.71 c -0.07 2.75 0.02 5.74 -0.67 8.41 c -0.62 2.41 -2.18 4.74 -3.44 6.88 h -5.56 c -1.81 -2.8 -5.19 -4.2 -6.66 -7.1 c 3.22 1.42 6.41 2.89 9.59 4.36 c 2.13 -4.39 3.35 -8.86 6.74 -12.55 z" stroke-linecap="round"/>
</g>
		<g transform="matrix(1.899 0 0 1.899 10.8153 433.0808)" id="g436">
<path style="stroke: none; stroke-width: 1; stroke-dasharray: none; stroke-linecap: butt; stroke-dashoffset: 0; stroke-linejoin: miter; stroke-miterlimit: 4; is-custom-font: none; font-file-url: none; fill: rgb(125,125,123); fill-rule: nonzero; opacity: 1;" transform=" translate(-186.4388, -516.4588)" d="m 186.24 516.26 c 0.53 0.53 0.53 0.53 0 0 z" stroke-linecap="round"/>
</g>
		<g transform="matrix(1.899 0 0 1.899 -156.2111 445.5691)" id="g436">
<path style="stroke: none; stroke-width: 1; stroke-dasharray: none; stroke-linecap: butt; stroke-dashoffset: 0; stroke-linejoin: miter; stroke-miterlimit: 4; is-custom-font: none; font-file-url: none; fill: rgb(114,114,114); fill-rule: nonzero; opacity: 1;" transform=" translate(-98.4845, -523.035)" d="m 97.9 521.98 c 1.04 0.34 1.42 1.04 1.15 2.11 c -1 -0.35 -1.38 -1.05 -1.15 -2.11 z" stroke-linecap="round"/>
</g>
</g>
</g>
</svg>